<svg width="368" height="146" viewBox="0 0 368 146" fill="none" xmlns="http://www.w3.org/2000/svg">
<path d="M69.8428 74.1017C69.8428 105.224 95.4243 126.93 49.1364 126.93C2.84845 126.93 37.3855 106.777 37.3855 75.6539C37.3855 44.5313 2.84828 34.4645 49.1362 34.4645C95.4241 34.4645 69.8428 42.9791 69.8428 74.1017Z" fill="#F8F5E0"/>
<path fill-rule="evenodd" clip-rule="evenodd" d="M48.7511 43.9672C47.5719 43.8466 46.0864 43.1387 44.2409 42.2593C41.0871 40.7565 36.8819 38.7527 31.358 38.3225C26.5661 37.9493 21.3829 38.8072 16.6371 39.5927C7.06013 41.1777 -0.736235 42.4681 0.055558 32.7534C1.23973 18.2246 13.9233 7.35964 28.3852 8.48585C39.1397 9.32336 47.8491 16.5563 51.1208 26.1845C56.0943 18.5774 65.0272 13.7625 74.8951 14.3531C89.3749 15.2197 100.385 27.3967 99.4864 41.5512C98.9788 49.5485 95.4902 47.233 89.9397 43.5489C85.6662 40.7124 80.1703 37.0645 73.8715 36.6876C67.6385 36.3145 61.6352 39.2052 56.8906 41.4899C53.3168 43.2108 50.4571 44.5878 48.7511 43.9672Z" fill="#D14267"/>
<path d="M47 122C48.0041 109.68 52.3596 118.947 64.6231 119.902C76.8866 120.857 92.1714 112.305 91.1672 124.625C90.1631 136.945 79.4075 146.159 67.144 145.204C54.8806 144.249 45.9958 134.32 47 122Z" fill="#D14267"/>
<path d="M29.7646 121.687C17.4859 120.952 8.8053 105.559 8.04348 117.562C7.28166 129.565 16.6179 139.891 28.8965 140.626C41.1752 141.361 51.7382 132.503 52.5 120.5C53.2618 108.497 42.0432 122.421 29.7646 121.687Z" fill="#D14267"/>
<path fill-rule="evenodd" clip-rule="evenodd" d="M49.9006 74.9424C49.9006 71.8843 48.5699 69.137 46.4559 67.2479C44.7524 69.0877 43.7112 71.5496 43.7112 74.2547C43.7112 77.3128 45.0419 80.0601 47.1559 81.9492C48.8594 80.1094 49.9006 77.6475 49.9006 74.9424ZM57.1608 74.2547C57.1608 77.3128 58.4915 80.0601 60.6055 81.9492C62.309 80.1094 63.3502 77.6475 63.3502 74.9424C63.3502 71.8843 62.0194 69.137 59.9055 67.2479C58.202 69.0877 57.1608 71.5496 57.1608 74.2547Z" fill="#252948"/>
<path fill-rule="evenodd" clip-rule="evenodd" d="M62.0813 2.71122C63.7623 7.66004 63.3825 13.2808 60.5639 18.1627C57.9898 22.6213 53.8649 25.6264 49.2639 26.89C47.583 21.9412 47.9628 16.3204 50.7814 11.4385C53.3555 6.97993 57.4804 3.97486 62.0813 2.71122Z" fill="#252948"/>
<path d="M138.048 21.148C139.41 21.148 140.605 21.344 141.632 21.736C142.677 22.1093 143.2 22.6227 143.2 23.276C143.2 23.9293 142.948 24.7413 142.444 25.712C141.958 26.664 141.548 27.14 141.212 27.14C141.118 27.14 141.006 27.0933 140.876 27C140.764 26.888 140.484 26.776 140.036 26.664C139.606 26.5333 139.233 26.468 138.916 26.468C137.833 26.468 136.956 26.8507 136.284 27.616C135.63 28.3813 135.304 29.5573 135.304 31.144C135.304 32.712 135.64 33.8787 136.312 34.644C137.002 35.4093 137.87 35.792 138.916 35.792C139.345 35.792 139.821 35.736 140.344 35.624C140.885 35.4933 141.268 35.316 141.492 35.092C141.529 35.0547 141.604 35.036 141.716 35.036C141.828 35.036 142.033 35.2507 142.332 35.68C142.649 36.0907 142.938 36.6413 143.2 37.332C143.461 38.004 143.592 38.5267 143.592 38.9C143.592 39.628 143.032 40.2067 141.912 40.636C140.792 41.0653 139.466 41.28 137.936 41.28C135.472 41.28 133.446 40.412 131.86 38.676C130.273 36.94 129.48 34.4947 129.48 31.34C129.48 28.1667 130.292 25.6747 131.916 23.864C133.558 22.0533 135.602 21.148 138.048 21.148ZM147.799 39.348C146.642 38.06 146.063 36.2773 146.063 34C146.063 31.7227 146.642 29.94 147.799 28.652C148.975 27.364 150.552 26.72 152.531 26.72C154.51 26.72 156.078 27.364 157.235 28.652C158.392 29.94 158.971 31.7227 158.971 34C158.971 36.2773 158.392 38.06 157.235 39.348C156.078 40.636 154.51 41.28 152.531 41.28C150.552 41.28 148.975 40.636 147.799 39.348ZM152.531 31.396C151.486 31.396 150.963 32.2547 150.963 33.972C150.963 35.6893 151.486 36.548 152.531 36.548C153.595 36.548 154.127 35.6893 154.127 33.972C154.127 32.2547 153.595 31.396 152.531 31.396ZM163.154 39.348C161.997 38.06 161.418 36.2773 161.418 34C161.418 31.7227 161.997 29.94 163.154 28.652C164.33 27.364 165.908 26.72 167.886 26.72C169.865 26.72 171.433 27.364 172.59 28.652C173.748 29.94 174.326 31.7227 174.326 34C174.326 36.2773 173.748 38.06 172.59 39.348C171.433 40.636 169.865 41.28 167.886 41.28C165.908 41.28 164.33 40.636 163.154 39.348ZM167.886 31.396C166.841 31.396 166.318 32.2547 166.318 33.972C166.318 35.6893 166.841 36.548 167.886 36.548C168.95 36.548 169.482 35.6893 169.482 33.972C169.482 32.2547 168.95 31.396 167.886 31.396ZM177.306 21.624C177.306 21.3253 178.155 21.176 179.854 21.176C181.441 21.232 182.234 21.3533 182.234 21.54V32.292L185.006 27.168C185.137 26.888 185.93 26.748 187.386 26.748C188.842 26.748 189.775 26.8413 190.186 27.028L186.546 32.964L190.746 40.832C190.783 40.9067 190.429 40.9627 189.682 41C188.954 41.056 188.347 41.084 187.862 41.084C186.07 41.084 185.109 41 184.978 40.832L182.206 34.616V40.804C182.206 41.0467 181.385 41.168 179.742 41.168C178.118 41.168 177.306 41.056 177.306 40.832V21.624ZM198.305 40.832C198.305 40.9813 197.446 41.056 195.729 41.056C194.03 41.056 193.181 40.9907 193.181 40.86V27.112C193.181 26.9813 194.03 26.916 195.729 26.916C197.446 26.916 198.305 26.972 198.305 27.084V40.832ZM198.305 25.432C198.305 25.5627 197.446 25.628 195.729 25.628C194.03 25.628 193.181 25.572 193.181 25.46V21.428C193.181 21.2413 194.03 21.148 195.729 21.148C197.446 21.148 198.305 21.204 198.305 21.316V25.432ZM212.421 40.244C211.245 40.9347 209.733 41.28 207.885 41.28C206.037 41.28 204.478 40.6547 203.209 39.404C201.94 38.1347 201.305 36.3893 201.305 34.168C201.305 31.928 201.912 30.1267 203.125 28.764C204.357 27.4013 205.906 26.72 207.773 26.72C209.64 26.72 211.077 27.196 212.085 28.148C213.112 29.1 213.625 30.2573 213.625 31.62C213.625 34.644 211.889 36.156 208.417 36.156H206.485C206.485 36.716 206.634 37.108 206.933 37.332C207.25 37.5373 207.708 37.64 208.305 37.64C209.612 37.64 210.853 37.3413 212.029 36.744C212.048 36.7253 212.132 36.856 212.281 37.136C212.729 37.9387 212.953 38.62 212.953 39.18C212.953 39.7213 212.776 40.076 212.421 40.244ZM208.921 32.152C208.921 31.368 208.538 30.976 207.773 30.976C207.418 30.976 207.11 31.088 206.849 31.312C206.606 31.5173 206.485 31.8253 206.485 32.236V33.104H207.997C208.613 33.104 208.921 32.7867 208.921 32.152ZM219.506 28.568C219.245 28.6427 218.984 28.68 218.722 28.68C218.461 28.68 218.2 28.6427 217.938 28.568C217.416 28.4187 217.154 28.176 217.154 27.84V21.932C217.154 21.596 217.556 21.3533 218.358 21.204C218.75 21.1293 219.152 21.092 219.562 21.092C219.973 21.092 220.384 21.1293 220.794 21.204C221.597 21.3533 221.998 21.596 221.998 21.932L220.318 27.84C220.318 28.176 220.048 28.4187 219.506 28.568ZM226.847 35.96C228.359 36.8747 229.554 37.332 230.431 37.332C230.991 37.332 231.271 37.136 231.271 36.744C231.271 36.464 230.786 36.1 229.815 35.652C227.482 34.7 226.315 33.1413 226.315 30.976C226.315 29.5947 226.819 28.54 227.827 27.812C228.835 27.084 230.039 26.72 231.439 26.72C232.858 26.72 234.052 26.8693 235.023 27.168C236.012 27.4667 236.507 27.8587 236.507 28.344C236.507 28.7547 236.302 29.296 235.891 29.968C235.499 30.64 235.228 31.004 235.079 31.06C234.276 30.612 233.408 30.388 232.475 30.388C231.971 30.388 231.719 30.5653 231.719 30.92C231.719 31.144 231.812 31.34 231.999 31.508C232.204 31.6573 232.568 31.8533 233.091 32.096C233.614 32.32 234.043 32.5253 234.379 32.712C234.734 32.8987 235.126 33.16 235.555 33.496C236.451 34.2053 236.899 35.1293 236.899 36.268C236.899 37.7613 236.404 38.9747 235.415 39.908C234.426 40.8227 232.932 41.28 230.935 41.28C229.61 41.28 228.406 41.056 227.323 40.608C226.24 40.16 225.699 39.544 225.699 38.76C225.699 38.2373 225.82 37.6867 226.063 37.108C226.324 36.5293 226.586 36.1467 226.847 35.96Z" fill="#252948"/>
<path d="M137.159 130.72C137.159 130.92 136.533 131.02 135.279 131.02L134.159 130.96C133.493 130.907 133.159 130.813 133.159 130.68V117.26C133.159 117.033 133.826 116.92 135.159 116.92C136.493 116.92 137.159 117.033 137.159 117.26V122.38L139.599 117.26C139.693 117.073 140.226 116.98 141.199 116.98C142.973 116.98 143.906 117.133 143.999 117.44C143.999 117.467 143.993 117.493 143.979 117.52L140.499 123.8L144.539 129.38C144.539 129.407 144.413 129.52 144.159 129.72C143.546 130.253 142.826 130.673 141.999 130.98C141.746 131.073 141.493 131.12 141.239 131.12L140.759 131.08C140.333 130.973 139.999 130.7 139.759 130.26L137.479 125.9H137.159V130.72ZM150.37 130.88C150.37 130.987 149.757 131.04 148.53 131.04C147.317 131.04 146.71 130.993 146.71 130.9V121.08C146.71 120.987 147.317 120.94 148.53 120.94C149.757 120.94 150.37 120.98 150.37 121.06V130.88ZM150.37 119.88C150.37 119.973 149.757 120.02 148.53 120.02C147.317 120.02 146.71 119.98 146.71 119.9V117.02C146.71 116.887 147.317 116.82 148.53 116.82C149.757 116.82 150.37 116.86 150.37 116.94V119.88ZM158.488 117.12C158.488 116.92 159.015 116.82 160.068 116.82C160.428 116.82 160.841 116.847 161.308 116.9C161.788 116.94 162.028 117 162.028 117.08V127.62H162.728C163.061 127.62 163.281 127.92 163.388 128.52C163.415 128.693 163.428 128.933 163.428 129.24C163.428 129.533 163.335 129.893 163.148 130.32C162.881 130.907 162.455 131.2 161.868 131.2C161.428 131.2 161.035 131.113 160.688 130.94C160.355 130.767 160.128 130.587 160.008 130.4L159.828 130.14C159.095 130.847 158.175 131.2 157.068 131.2C155.961 131.2 155.015 130.74 154.228 129.82C153.441 128.9 153.048 127.62 153.048 125.98C153.048 124.327 153.461 123.053 154.288 122.16C155.115 121.253 156.148 120.8 157.388 120.8C157.748 120.8 158.115 120.84 158.488 120.92V117.12ZM157.828 124C157.081 124 156.708 124.673 156.708 126.02C156.708 126.7 156.815 127.193 157.028 127.5C157.241 127.793 157.475 127.94 157.728 127.94C157.995 127.94 158.248 127.827 158.488 127.6V124.2C158.261 124.067 158.041 124 157.828 124ZM166.405 127.4C167.485 128.053 168.339 128.38 168.965 128.38C169.365 128.38 169.565 128.24 169.565 127.96C169.565 127.76 169.219 127.5 168.525 127.18C166.859 126.5 166.025 125.387 166.025 123.84C166.025 122.853 166.385 122.1 167.105 121.58C167.825 121.06 168.685 120.8 169.685 120.8C170.699 120.8 171.552 120.907 172.245 121.12C172.952 121.333 173.305 121.613 173.305 121.96C173.305 122.253 173.159 122.64 172.865 123.12C172.585 123.6 172.392 123.86 172.285 123.9C171.712 123.58 171.092 123.42 170.425 123.42C170.065 123.42 169.885 123.547 169.885 123.8C169.885 123.96 169.952 124.1 170.085 124.22C170.232 124.327 170.492 124.467 170.865 124.64C171.239 124.8 171.545 124.947 171.785 125.08C172.039 125.213 172.319 125.4 172.625 125.64C173.265 126.147 173.585 126.807 173.585 127.62C173.585 128.687 173.232 129.553 172.525 130.22C171.819 130.873 170.752 131.2 169.325 131.2C168.379 131.2 167.519 131.04 166.745 130.72C165.972 130.4 165.585 129.96 165.585 129.4C165.585 129.027 165.672 128.633 165.845 128.22C166.032 127.807 166.219 127.533 166.405 127.4ZM192.237 130.66C192.237 130.887 191.563 131 190.217 131C188.87 131 188.197 130.887 188.197 130.66V126.06H185.397V130.66C185.397 130.887 184.723 131 183.377 131C182.03 131 181.357 130.887 181.357 130.66V117.4C181.357 117.12 182.03 116.98 183.377 116.98C184.723 116.98 185.397 117.12 185.397 117.4V122.1H188.197V117.44C188.197 117.253 188.53 117.12 189.197 117.04C189.543 117.013 189.883 117 190.217 117L191.237 117.04C191.903 117.12 192.237 117.253 192.237 117.44V130.66ZM202.936 130.46C202.096 130.953 201.016 131.2 199.696 131.2C198.376 131.2 197.263 130.753 196.356 129.86C195.45 128.953 194.996 127.707 194.996 126.12C194.996 124.52 195.43 123.233 196.296 122.26C197.176 121.287 198.283 120.8 199.616 120.8C200.95 120.8 201.976 121.14 202.696 121.82C203.43 122.5 203.796 123.327 203.796 124.3C203.796 126.46 202.556 127.54 200.076 127.54H198.696C198.696 127.94 198.803 128.22 199.016 128.38C199.243 128.527 199.57 128.6 199.996 128.6C200.93 128.6 201.816 128.387 202.656 127.96C202.67 127.947 202.73 128.04 202.836 128.24C203.156 128.813 203.316 129.3 203.316 129.7C203.316 130.087 203.19 130.34 202.936 130.46ZM200.436 124.68C200.436 124.12 200.163 123.84 199.616 123.84C199.363 123.84 199.143 123.92 198.956 124.08C198.783 124.227 198.696 124.447 198.696 124.74V125.36H199.776C200.216 125.36 200.436 125.133 200.436 124.68ZM207.612 123.74C207.239 123.073 207.052 122.533 207.052 122.12C207.052 121.693 207.165 121.42 207.392 121.3C208.152 120.967 209.192 120.8 210.512 120.8C211.845 120.8 212.785 121.113 213.332 121.74C213.879 122.353 214.152 123.267 214.152 124.48V127.64H214.832C215.059 127.64 215.232 127.773 215.352 128.04C215.485 128.307 215.552 128.673 215.552 129.14C215.552 129.607 215.432 130.067 215.192 130.52C214.965 130.973 214.652 131.2 214.252 131.2C213.532 131.2 212.952 131.007 212.512 130.62C212.312 130.46 212.159 130.267 212.052 130.04C211.439 130.813 210.485 131.2 209.192 131.2C208.219 131.2 207.399 130.853 206.732 130.16C206.065 129.467 205.732 128.647 205.732 127.7C205.732 125.527 207.032 124.44 209.632 124.44H210.732V124.24C210.732 123.893 210.672 123.673 210.552 123.58C210.445 123.473 210.185 123.42 209.772 123.42C209.265 123.42 208.545 123.527 207.612 123.74ZM209.212 127.42C209.212 127.713 209.292 127.94 209.452 128.1C209.612 128.247 209.812 128.32 210.052 128.32C210.305 128.32 210.532 128.22 210.732 128.02V126.48H210.172C209.532 126.48 209.212 126.793 209.212 127.42ZM221.573 130.84C221.573 130.96 220.893 131.02 219.533 131.02C218.466 131.007 217.933 130.953 217.933 130.86V117.24C217.933 117.04 218.579 116.94 219.873 116.94C221.006 116.98 221.573 117.047 221.573 117.14V130.84ZM229.231 130.88C229.231 131.04 228.671 131.12 227.551 131.12C226.218 131.067 225.551 130.98 225.551 130.86V123.78H224.531C224.264 123.78 224.131 123.32 224.131 122.4C224.131 122.16 224.151 121.867 224.191 121.52C224.244 121.173 224.344 121 224.491 121H225.551V119.24C225.551 118.973 226.111 118.84 227.231 118.84C228.364 118.84 228.931 118.947 228.931 119.16V120.44L228.951 121H230.651C230.878 121 230.991 121.467 230.991 122.4C230.991 123.333 230.878 123.8 230.651 123.8H229.231V130.88ZM236.583 130.86C236.583 130.98 236.023 131.04 234.903 131.04C233.796 131.04 233.243 130.947 233.243 130.76V117.06C233.243 116.967 233.45 116.9 233.863 116.86C234.276 116.82 234.623 116.8 234.903 116.8C236.023 116.8 236.583 116.92 236.583 117.16V121.16C237.33 120.933 237.896 120.82 238.283 120.82C239.296 120.82 240.096 121.093 240.683 121.64C241.27 122.173 241.563 123.173 241.563 124.64V130.84C241.563 130.96 241.043 131.02 240.003 131.02C238.83 130.98 238.243 130.913 238.243 130.82V124.94C238.243 124.287 238.03 123.96 237.603 123.96C237.31 123.96 236.97 124.1 236.583 124.38V130.86ZM255.61 121.22L255.63 121.02C255.63 120.687 255.516 120.42 255.29 120.22C255.076 120.02 254.81 119.92 254.49 119.92C254.17 119.92 253.903 120.027 253.69 120.24C253.476 120.453 253.37 120.747 253.37 121.12C253.37 122.133 254.083 122.64 255.51 122.64C255.83 122.64 256.19 122.613 256.59 122.56C259.216 122.227 260.543 122.06 260.57 122.06C260.943 122.06 261.13 122.44 261.13 123.2C261.13 123.813 261.003 124.42 260.75 125.02L258.71 125.26C259.056 126.1 259.23 126.86 259.23 127.54C259.23 128.593 258.823 129.467 258.01 130.16C257.21 130.853 256.036 131.2 254.49 131.2C252.956 131.2 251.743 130.827 250.85 130.08C249.956 129.32 249.51 128.353 249.51 127.18C249.51 125.993 250.076 124.98 251.21 124.14C250.37 123.207 249.95 122.127 249.95 120.9C249.95 119.673 250.376 118.687 251.23 117.94C252.083 117.18 253.19 116.8 254.55 116.8C255.91 116.8 256.983 117.133 257.77 117.8C258.57 118.467 258.97 119.367 258.97 120.5C258.97 120.727 258.75 120.947 258.31 121.16C257.883 121.373 257.37 121.48 256.77 121.48C256.17 121.48 255.783 121.393 255.61 121.22ZM253.41 125.3C253.263 125.687 253.19 126.033 253.19 126.34C253.19 126.633 253.236 126.893 253.33 127.12C253.543 127.64 253.97 127.9 254.61 127.9C255.063 127.9 255.39 127.74 255.59 127.42C255.803 127.087 255.91 126.673 255.91 126.18C255.91 125.953 255.903 125.787 255.89 125.68C255.876 125.56 255.87 125.487 255.87 125.46C255.416 125.54 254.97 125.58 254.53 125.58C254.09 125.58 253.716 125.487 253.41 125.3ZM268.657 117.2C268.617 117.053 269.29 116.98 270.677 116.98C272.21 116.98 272.997 117.107 273.037 117.36L274.017 125.78L276.137 117.26C276.203 117.06 276.723 116.96 277.697 116.96C278.67 116.96 279.19 117.053 279.257 117.24L281.337 125.82L282.497 117.32C282.523 117.173 282.83 117.073 283.417 117.02C284.003 116.967 284.477 116.94 284.837 116.94C286.237 116.94 286.917 117.033 286.877 117.22L284.457 130.48C284.403 130.68 284.023 130.827 283.317 130.92C282.61 131.013 282.037 131.06 281.597 131.06C279.943 131.06 279.077 130.873 278.997 130.5L277.637 125L276.157 130.48C276.103 130.72 275.637 130.893 274.757 131C274.303 131.04 273.85 131.06 273.397 131.06L272.117 131C271.237 130.907 270.77 130.74 270.717 130.5L268.657 117.2ZM296.5 130.46C295.66 130.953 294.58 131.2 293.26 131.2C291.94 131.2 290.827 130.753 289.92 129.86C289.014 128.953 288.56 127.707 288.56 126.12C288.56 124.52 288.994 123.233 289.86 122.26C290.74 121.287 291.847 120.8 293.18 120.8C294.514 120.8 295.54 121.14 296.26 121.82C296.994 122.5 297.36 123.327 297.36 124.3C297.36 126.46 296.12 127.54 293.64 127.54H292.26C292.26 127.94 292.367 128.22 292.58 128.38C292.807 128.527 293.134 128.6 293.56 128.6C294.494 128.6 295.38 128.387 296.22 127.96C296.234 127.947 296.294 128.04 296.4 128.24C296.72 128.813 296.88 129.3 296.88 129.7C296.88 130.087 296.754 130.34 296.5 130.46ZM294 124.68C294 124.12 293.727 123.84 293.18 123.84C292.927 123.84 292.707 123.92 292.52 124.08C292.347 124.227 292.26 124.447 292.26 124.74V125.36H293.34C293.78 125.36 294 125.133 294 124.68ZM303.556 130.84C303.556 130.96 302.876 131.02 301.516 131.02C300.449 131.007 299.916 130.953 299.916 130.86V117.24C299.916 117.04 300.562 116.94 301.856 116.94C302.989 116.98 303.556 117.047 303.556 117.14V130.84ZM310.254 130.84C310.254 130.96 309.574 131.02 308.214 131.02C307.147 131.007 306.614 130.953 306.614 130.86V117.24C306.614 117.04 307.261 116.94 308.554 116.94C309.687 116.98 310.254 117.047 310.254 117.14V130.84ZM313.412 117.06C313.412 116.9 313.985 116.82 315.132 116.82C316.292 116.82 316.872 116.907 316.872 117.08V120.96C317.445 120.853 317.852 120.8 318.092 120.8C320.892 120.8 322.292 122.407 322.292 125.62C322.292 127.407 321.859 128.787 320.992 129.76C320.139 130.72 318.919 131.2 317.332 131.2C315.759 131.2 314.452 130.847 313.412 130.14V117.06ZM317.532 123.92C317.305 123.92 317.085 123.993 316.872 124.14V127.96C317.059 128.04 317.252 128.08 317.452 128.08C317.665 128.08 317.879 128 318.092 127.84C318.465 127.573 318.652 126.953 318.652 125.98C318.652 124.607 318.279 123.92 317.532 123.92ZM332.511 130.46C331.671 130.953 330.591 131.2 329.271 131.2C327.951 131.2 326.838 130.753 325.931 129.86C325.025 128.953 324.571 127.707 324.571 126.12C324.571 124.52 325.005 123.233 325.871 122.26C326.751 121.287 327.858 120.8 329.191 120.8C330.525 120.8 331.551 121.14 332.271 121.82C333.005 122.5 333.371 123.327 333.371 124.3C333.371 126.46 332.131 127.54 329.651 127.54H328.271C328.271 127.94 328.378 128.22 328.591 128.38C328.818 128.527 329.145 128.6 329.571 128.6C330.505 128.6 331.391 128.387 332.231 127.96C332.245 127.947 332.305 128.04 332.411 128.24C332.731 128.813 332.891 129.3 332.891 129.7C332.891 130.087 332.765 130.34 332.511 130.46ZM330.011 124.68C330.011 124.12 329.738 123.84 329.191 123.84C328.938 123.84 328.718 123.92 328.531 124.08C328.358 124.227 328.271 124.447 328.271 124.74V125.36H329.351C329.791 125.36 330.011 125.133 330.011 124.68ZM339.587 130.88C339.587 130.987 338.973 131.04 337.747 131.04C336.533 131.04 335.927 130.993 335.927 130.9V121.08C335.927 120.987 336.533 120.94 337.747 120.94C338.973 120.94 339.587 120.98 339.587 121.06V130.88ZM339.587 119.88C339.587 119.973 338.973 120.02 337.747 120.02C336.533 120.02 335.927 119.98 335.927 119.9V117.02C335.927 116.887 336.533 116.82 337.747 116.82C338.973 116.82 339.587 116.86 339.587 116.94V119.88ZM346.824 130.88C346.824 130.973 346.344 131.02 345.384 131.02C344.051 130.98 343.384 130.907 343.384 130.8V124.32H342.864C342.518 124.32 342.291 124.027 342.184 123.44C342.158 123.267 342.144 123.093 342.144 122.92C342.144 122.507 342.224 122.093 342.384 121.68C342.624 121.093 342.998 120.8 343.504 120.8C344.011 120.8 344.464 120.92 344.864 121.16C345.264 121.4 345.531 121.64 345.664 121.88C346.504 121.16 347.504 120.8 348.664 120.8C349.824 120.8 350.664 121.113 351.184 121.74C351.704 122.367 351.964 123.393 351.964 124.82V130.82C351.964 130.98 351.391 131.06 350.244 131.06C349.111 131.06 348.544 130.98 348.544 130.82V125.04C348.544 124.373 348.311 124.04 347.844 124.04C347.711 124.04 347.524 124.1 347.284 124.22C347.044 124.327 346.891 124.407 346.824 124.46V130.88ZM358.589 131C357.296 131 356.296 130.587 355.589 129.76C354.882 128.92 354.529 127.687 354.529 126.06C354.529 124.42 354.989 123.14 355.909 122.22C356.842 121.287 358.076 120.82 359.609 120.82C361.156 120.82 362.429 121.16 363.429 121.84V131.8C363.429 132.787 363.029 133.54 362.229 134.06C361.429 134.593 360.402 134.86 359.149 134.86C357.896 134.86 356.776 134.7 355.789 134.38C355.656 134.06 355.589 133.773 355.589 133.52C355.589 132.667 355.729 132.04 356.009 131.64C356.902 132.027 357.856 132.22 358.869 132.22C359.602 132.22 359.969 131.96 359.969 131.44V130.84C359.396 130.947 358.936 131 358.589 131ZM359.509 124.08C358.616 124.08 358.169 124.753 358.169 126.1C358.169 126.94 358.342 127.487 358.689 127.74C358.916 127.913 359.142 128 359.369 128C359.596 128 359.796 127.98 359.969 127.94V124.14C359.809 124.1 359.656 124.08 359.509 124.08Z" fill="#252948"/>
<path d="M147.5 105.908C147.5 106.688 145.056 107.078 140.168 107.078L135.8 106.844C133.2 106.636 131.9 106.272 131.9 105.752V53.414C131.9 52.53 134.5 52.088 139.7 52.088C144.9 52.088 147.5 52.53 147.5 53.414V73.382L157.016 53.414C157.38 52.686 159.46 52.322 163.256 52.322C170.172 52.322 173.812 52.92 174.176 54.116C174.176 54.22 174.15 54.324 174.098 54.428L160.526 78.92L176.282 100.682C176.282 100.786 175.788 101.228 174.8 102.008C172.408 104.088 169.6 105.726 166.376 106.922C165.388 107.286 164.4 107.468 163.412 107.468L161.54 107.312C159.876 106.896 158.576 105.83 157.64 104.114L148.748 87.11H147.5V105.908ZM228.856 105.674C228.856 106.558 226.23 107 220.978 107C215.726 107 213.1 106.558 213.1 105.674V87.734H202.18V105.674C202.18 106.558 199.554 107 194.302 107C189.05 107 186.424 106.558 186.424 105.674V53.96C186.424 52.868 189.05 52.322 194.302 52.322C199.554 52.322 202.18 52.868 202.18 53.96V72.29H213.1V54.116C213.1 53.388 214.4 52.868 217 52.556C218.352 52.452 219.678 52.4 220.978 52.4L224.956 52.556C227.556 52.868 228.856 53.388 228.856 54.116V105.674ZM279.436 107.156C274.912 107.156 272.468 106.428 272.104 104.972L269.53 94.91H257.128L254.866 104.582C254.554 106.194 252.058 107 247.378 107C244.882 107 243.036 106.87 241.84 106.61C240.644 106.298 240.046 106.064 240.046 105.908L253.852 53.102C253.852 52.686 257.414 52.478 264.538 52.478C271.662 52.478 275.224 52.686 275.224 53.102L288.718 105.986C288.718 106.35 287.522 106.636 285.13 106.844C282.738 107.052 280.84 107.156 279.436 107.156ZM259.078 85.004H267.268L263.758 68.858H263.29L259.078 85.004ZM295.038 53.18C294.882 52.608 297.508 52.322 302.916 52.322C308.896 52.322 311.964 52.816 312.12 53.804L315.942 86.642L324.21 53.414C324.47 52.634 326.498 52.244 330.294 52.244C334.09 52.244 336.118 52.608 336.378 53.336L344.49 86.798L349.014 53.648C349.118 53.076 350.314 52.686 352.602 52.478C354.89 52.27 356.736 52.166 358.14 52.166C363.6 52.166 366.252 52.53 366.096 53.258L356.658 104.972C356.45 105.752 354.968 106.324 352.212 106.688C349.456 107.052 347.22 107.234 345.504 107.234C339.056 107.234 335.676 106.506 335.364 105.05L330.06 83.6L324.288 104.972C324.08 105.908 322.26 106.584 318.828 107C317.06 107.156 315.292 107.234 313.524 107.234L308.532 107C305.1 106.636 303.28 105.986 303.072 105.05L295.038 53.18Z" fill="#252948"/>
</svg>
