<svg width="112" height="35" viewBox="0 0 112 35" fill="none" xmlns="http://www.w3.org/2000/svg">
<path d="M35.688 2.58493C36.0773 2.58493 36.4187 2.64093 36.712 2.75293C37.0107 2.85959 37.16 3.00626 37.16 3.19293C37.16 3.37959 37.088 3.61159 36.944 3.88893C36.8053 4.16093 36.688 4.29693 36.592 4.29693C36.5653 4.29693 36.5333 4.28359 36.496 4.25693C36.464 4.22493 36.384 4.19293 36.256 4.16093C36.1333 4.12359 36.0267 4.10493 35.936 4.10493C35.6267 4.10493 35.376 4.21426 35.184 4.43293C34.9973 4.65159 34.904 4.98759 34.904 5.44093C34.904 5.88893 35 6.22226 35.192 6.44093C35.3893 6.65959 35.6373 6.76893 35.936 6.76893C36.0587 6.76893 36.1947 6.75293 36.344 6.72093C36.4987 6.68359 36.608 6.63293 36.672 6.56893C36.6827 6.55826 36.704 6.55293 36.736 6.55293C36.768 6.55293 36.8267 6.61426 36.912 6.73693C37.0027 6.85426 37.0853 7.01159 37.16 7.20893C37.2347 7.40093 37.272 7.55026 37.272 7.65693C37.272 7.86493 37.112 8.03026 36.792 8.15293C36.472 8.27559 36.0933 8.33693 35.656 8.33693C34.952 8.33693 34.3733 8.08893 33.92 7.59293C33.4667 7.09693 33.24 6.39826 33.24 5.49693C33.24 4.59026 33.472 3.87826 33.936 3.36093C34.4053 2.84359 34.9893 2.58493 35.688 2.58493ZM38.9087 7.78493C38.578 7.41693 38.4127 6.90759 38.4127 6.25693C38.4127 5.60626 38.578 5.09693 38.9087 4.72893C39.2447 4.36093 39.6954 4.17693 40.2607 4.17693C40.826 4.17693 41.274 4.36093 41.6047 4.72893C41.9354 5.09693 42.1007 5.60626 42.1007 6.25693C42.1007 6.90759 41.9354 7.41693 41.6047 7.78493C41.274 8.15293 40.826 8.33693 40.2607 8.33693C39.6954 8.33693 39.2447 8.15293 38.9087 7.78493ZM40.2607 5.51293C39.962 5.51293 39.8127 5.75826 39.8127 6.24893C39.8127 6.73959 39.962 6.98493 40.2607 6.98493C40.5647 6.98493 40.7167 6.73959 40.7167 6.24893C40.7167 5.75826 40.5647 5.51293 40.2607 5.51293ZM43.7306 7.78493C43.3999 7.41693 43.2346 6.90759 43.2346 6.25693C43.2346 5.60626 43.3999 5.09693 43.7306 4.72893C44.0666 4.36093 44.5173 4.17693 45.0826 4.17693C45.6479 4.17693 46.0959 4.36093 46.4266 4.72893C46.7573 5.09693 46.9226 5.60626 46.9226 6.25693C46.9226 6.90759 46.7573 7.41693 46.4266 7.78493C46.0959 8.15293 45.6479 8.33693 45.0826 8.33693C44.5173 8.33693 44.0666 8.15293 43.7306 7.78493ZM45.0826 5.51293C44.7839 5.51293 44.6346 5.75826 44.6346 6.24893C44.6346 6.73959 44.7839 6.98493 45.0826 6.98493C45.3866 6.98493 45.5386 6.73959 45.5386 6.24893C45.5386 5.75826 45.3866 5.51293 45.0826 5.51293ZM48.2085 2.72093C48.2085 2.63559 48.4511 2.59293 48.9365 2.59293C49.3898 2.60893 49.6165 2.64359 49.6165 2.69693V5.76893L50.4085 4.30493C50.4458 4.22493 50.6725 4.18493 51.0885 4.18493C51.5045 4.18493 51.7711 4.21159 51.8885 4.26493L50.8485 5.96093L52.0485 8.20893C52.0591 8.23026 51.9578 8.24626 51.7445 8.25693C51.5365 8.27293 51.3631 8.28093 51.2245 8.28093C50.7125 8.28093 50.4378 8.25693 50.4005 8.20893L49.6085 6.43293V8.20093C49.6085 8.27026 49.3738 8.30493 48.9045 8.30493C48.4405 8.30493 48.2085 8.27293 48.2085 8.20893V2.72093ZM54.6428 8.20893C54.6428 8.25159 54.3975 8.27293 53.9068 8.27293C53.4215 8.27293 53.1788 8.25426 53.1788 8.21693V4.28893C53.1788 4.25159 53.4215 4.23293 53.9068 4.23293C54.3975 4.23293 54.6428 4.24893 54.6428 4.28093V8.20893ZM54.6428 3.80893C54.6428 3.84626 54.3975 3.86493 53.9068 3.86493C53.4215 3.86493 53.1788 3.84893 53.1788 3.81693V2.66493C53.1788 2.61159 53.4215 2.58493 53.9068 2.58493C54.3975 2.58493 54.6428 2.60093 54.6428 2.63293V3.80893ZM59.1106 8.04093C58.7746 8.23826 58.3426 8.33693 57.8146 8.33693C57.2866 8.33693 56.8413 8.15826 56.4786 7.80093C56.116 7.43826 55.9346 6.93959 55.9346 6.30493C55.9346 5.66493 56.108 5.15026 56.4546 4.76093C56.8066 4.37159 57.2493 4.17693 57.7826 4.17693C58.316 4.17693 58.7266 4.31293 59.0146 4.58493C59.308 4.85693 59.4546 5.18759 59.4546 5.57693C59.4546 6.44093 58.9586 6.87293 57.9666 6.87293H57.4146C57.4146 7.03293 57.4573 7.14493 57.5426 7.20893C57.6333 7.26759 57.764 7.29693 57.9346 7.29693C58.308 7.29693 58.6626 7.21159 58.9986 7.04093C59.004 7.03559 59.028 7.07293 59.0706 7.15293C59.1986 7.38226 59.2626 7.57693 59.2626 7.73693C59.2626 7.89159 59.212 7.99293 59.1106 8.04093ZM58.1106 5.72893C58.1106 5.50493 58.0013 5.39293 57.7826 5.39293C57.6813 5.39293 57.5933 5.42493 57.5186 5.48893C57.4493 5.54759 57.4146 5.63559 57.4146 5.75293V6.00093H57.8466C58.0226 6.00093 58.1106 5.91026 58.1106 5.72893ZM61.5696 4.70493C61.4949 4.72626 61.4202 4.73693 61.3456 4.73693C61.2709 4.73693 61.1962 4.72626 61.1216 4.70493C60.9722 4.66226 60.8976 4.59293 60.8976 4.49693V2.80893C60.8976 2.71293 61.0122 2.64359 61.2416 2.60093C61.3536 2.57959 61.4682 2.56893 61.5856 2.56893C61.7029 2.56893 61.8202 2.57959 61.9376 2.60093C62.1669 2.64359 62.2816 2.71293 62.2816 2.80893L61.8016 4.49693C61.8016 4.59293 61.7242 4.66226 61.5696 4.70493ZM64.1015 6.81693C64.5335 7.07826 64.8749 7.20893 65.1255 7.20893C65.2855 7.20893 65.3655 7.15293 65.3655 7.04093C65.3655 6.96093 65.2269 6.85693 64.9495 6.72893C64.2829 6.45693 63.9495 6.01159 63.9495 5.39293C63.9495 4.99826 64.0935 4.69693 64.3815 4.48893C64.6695 4.28093 65.0135 4.17693 65.4135 4.17693C65.8189 4.17693 66.1602 4.21959 66.4375 4.30493C66.7202 4.39026 66.8615 4.50226 66.8615 4.64093C66.8615 4.75826 66.8029 4.91293 66.6855 5.10493C66.5735 5.29693 66.4962 5.40093 66.4535 5.41693C66.2242 5.28893 65.9762 5.22493 65.7095 5.22493C65.5655 5.22493 65.4935 5.27559 65.4935 5.37693C65.4935 5.44093 65.5202 5.49693 65.5735 5.54493C65.6322 5.58759 65.7362 5.64359 65.8855 5.71293C66.0349 5.77693 66.1575 5.83559 66.2535 5.88893C66.3549 5.94226 66.4669 6.01693 66.5895 6.11293C66.8455 6.31559 66.9735 6.57959 66.9735 6.90493C66.9735 7.33159 66.8322 7.67826 66.5495 7.94493C66.2669 8.20626 65.8402 8.33693 65.2695 8.33693C64.8909 8.33693 64.5469 8.27293 64.2375 8.14493C63.9282 8.01693 63.7735 7.84093 63.7735 7.61693C63.7735 7.46759 63.8082 7.31026 63.8775 7.14493C63.9522 6.97959 64.0269 6.87026 64.1015 6.81693Z" fill="#252948"/>
<path d="M37.1175 27.0294C37.2225 27.0294 37.31 27.0644 37.38 27.1344C37.455 27.2044 37.4925 27.2894 37.4925 27.3894C37.4925 27.4994 37.4525 27.5844 37.3725 27.6444C37.2175 27.7694 37.0425 27.8994 36.8475 28.0344C36.6525 28.1644 36.465 28.2869 36.285 28.4019L35.94 28.6269C35.415 28.9669 35.1325 29.1494 35.0925 29.1744C35.0175 29.2244 34.9375 29.2769 34.8525 29.3319C34.7675 29.3819 34.6875 29.4319 34.6125 29.4819L35.055 29.8719C35.44 30.2069 35.695 30.4269 35.82 30.5319C36.07 30.7469 36.285 30.9269 36.465 31.0719C36.645 31.2119 36.89 31.3969 37.2 31.6269C37.295 31.7019 37.3425 31.7969 37.3425 31.9119C37.3425 32.0169 37.305 32.1044 37.23 32.1744C37.16 32.2394 37.075 32.2719 36.975 32.2719C36.885 32.2719 36.81 32.2494 36.75 32.2044L36.6075 32.0919C36.0575 31.6469 35.6575 31.3144 35.4075 31.0944C34.9825 30.7344 34.6225 30.4094 34.3275 30.1194L34.32 30.7794C34.31 31.2594 34.305 31.6294 34.305 31.8894C34.305 32.0044 34.27 32.0969 34.2 32.1669C34.13 32.2319 34.0375 32.2644 33.9225 32.2644C33.7975 32.2644 33.705 32.2344 33.645 32.1744C33.585 32.1094 33.555 32.0094 33.555 31.8744C33.555 31.6594 33.56 31.3069 33.57 30.8169C33.585 30.4119 33.5925 29.9644 33.5925 29.4744L33.585 28.3944C33.58 28.1744 33.5775 27.8219 33.5775 27.3369C33.5775 27.2469 33.6125 27.1694 33.6825 27.1044C33.7525 27.0394 33.8425 27.0069 33.9525 27.0069C34.0675 27.0069 34.1575 27.0394 34.2225 27.1044C34.2925 27.1694 34.3275 27.2544 34.3275 27.3594L34.335 28.9044C34.78 28.6044 35.1625 28.3394 35.4825 28.1094L35.7675 27.9069C36.2075 27.6019 36.58 27.3344 36.885 27.1044C36.96 27.0544 37.0375 27.0294 37.1175 27.0294ZM38.5402 28.1244C38.3852 28.1244 38.2577 28.0744 38.1577 27.9744C38.0577 27.8694 38.0077 27.7394 38.0077 27.5844C38.0077 27.4344 38.0577 27.3094 38.1577 27.2094C38.2627 27.1094 38.3952 27.0594 38.5552 27.0594C38.7152 27.0594 38.8427 27.1069 38.9377 27.2019C39.0377 27.2969 39.0877 27.4219 39.0877 27.5769C39.0877 27.7319 39.0352 27.8619 38.9302 27.9669C38.8302 28.0719 38.7002 28.1244 38.5402 28.1244ZM38.4352 32.2119C38.3202 32.2119 38.2277 32.1844 38.1577 32.1294C38.0877 32.0744 38.0527 31.9969 38.0527 31.8969L38.1277 28.8519C38.1277 28.7519 38.1627 28.6744 38.2327 28.6194C38.3027 28.5594 38.3927 28.5294 38.5027 28.5294C38.6127 28.5294 38.7027 28.5594 38.7727 28.6194C38.8477 28.6794 38.8852 28.7594 38.8852 28.8594L38.8102 31.9044C38.8052 32.0044 38.7677 32.0819 38.6977 32.1369C38.6327 32.1869 38.5452 32.2119 38.4352 32.2119ZM41.6005 32.3019C41.2355 32.3019 40.903 32.2294 40.603 32.0844C40.308 31.9344 40.073 31.7144 39.898 31.4244C39.728 31.1294 39.643 30.7719 39.643 30.3519C39.643 29.9619 39.723 29.6219 39.883 29.3319C40.043 29.0419 40.2705 28.8194 40.5655 28.6644C40.8605 28.5094 41.2055 28.4319 41.6005 28.4319C41.8555 28.4319 42.078 28.4669 42.268 28.5369C42.458 28.6069 42.613 28.6969 42.733 28.8069C42.763 27.6019 42.8005 26.6869 42.8455 26.0619C42.8555 25.9769 42.893 25.9069 42.958 25.8519C43.028 25.7969 43.113 25.7694 43.213 25.7694C43.328 25.7694 43.4205 25.7994 43.4905 25.8594C43.5655 25.9194 43.6005 25.9969 43.5955 26.0919C43.5605 26.4219 43.528 27.0269 43.498 27.9069C43.473 28.7869 43.4605 29.5719 43.4605 30.2619C43.4605 30.9269 43.4755 31.3194 43.5055 31.4394C43.5605 31.6444 43.6355 31.7719 43.7305 31.8219C43.7505 31.8319 43.7605 31.8669 43.7605 31.9269C43.7605 32.0169 43.718 32.0994 43.633 32.1744C43.553 32.2494 43.463 32.2869 43.363 32.2869C43.278 32.2869 43.2105 32.2669 43.1605 32.2269C42.9855 32.1269 42.868 31.9519 42.808 31.7019C42.683 31.8869 42.5155 32.0344 42.3055 32.1444C42.0955 32.2494 41.8605 32.3019 41.6005 32.3019ZM41.593 31.6794C41.783 31.6794 41.963 31.6344 42.133 31.5444C42.308 31.4544 42.448 31.3369 42.553 31.1919C42.658 31.0419 42.7105 30.8844 42.7105 30.7194C42.7105 30.4894 42.713 30.3094 42.718 30.1794L42.7255 29.5794C42.6505 29.4494 42.508 29.3294 42.298 29.2194C42.093 29.1044 41.868 29.0469 41.623 29.0469C41.243 29.0469 40.9405 29.1644 40.7155 29.3994C40.4955 29.6344 40.3855 29.9594 40.3855 30.3744C40.3855 30.6594 40.443 30.9019 40.558 31.1019C40.678 31.2969 40.828 31.4419 41.008 31.5369C41.193 31.6319 41.388 31.6794 41.593 31.6794ZM45.4665 32.3019C45.1215 32.3019 44.824 32.2194 44.574 32.0544C44.324 31.8894 44.1365 31.6744 44.0115 31.4094C43.9765 31.3394 43.959 31.2844 43.959 31.2444C43.964 31.1594 44.0115 31.0844 44.1015 31.0194C44.1915 30.9494 44.2815 30.9194 44.3715 30.9294C44.4215 30.9394 44.459 30.9594 44.484 30.9894C44.514 31.0144 44.554 31.0594 44.604 31.1244C44.739 31.3094 44.8665 31.4519 44.9865 31.5519C45.1115 31.6469 45.274 31.6944 45.474 31.6944C45.659 31.6944 45.814 31.6494 45.939 31.5594C46.064 31.4694 46.1265 31.3569 46.1265 31.2219C46.1265 31.0769 46.0615 30.9669 45.9315 30.8919C45.8015 30.8119 45.5965 30.7219 45.3165 30.6219C45.0565 30.5369 44.844 30.4544 44.679 30.3744C44.514 30.2894 44.3715 30.1744 44.2515 30.0294C44.1365 29.8794 44.079 29.6894 44.079 29.4594C44.079 29.2494 44.1365 29.0594 44.2515 28.8894C44.3715 28.7144 44.5365 28.5794 44.7465 28.4844C44.9565 28.3844 45.194 28.3344 45.459 28.3344C45.729 28.3344 45.9665 28.3869 46.1715 28.4919C46.3765 28.5919 46.534 28.7269 46.644 28.8969C46.754 29.0669 46.809 29.2519 46.809 29.4519C46.809 29.5669 46.7815 29.6519 46.7265 29.7069C46.6765 29.7569 46.5915 29.7819 46.4715 29.7819C46.3515 29.7819 46.2715 29.7619 46.2315 29.7219C46.1915 29.6769 46.169 29.6194 46.164 29.5494C46.144 29.3544 46.074 29.2069 45.954 29.1069C45.839 29.0019 45.674 28.9494 45.459 28.9494C45.234 28.9494 45.069 29.0019 44.964 29.1069C44.864 29.2069 44.814 29.3194 44.814 29.4444C44.814 29.5944 44.879 29.7094 45.009 29.7894C45.144 29.8694 45.3565 29.9594 45.6465 30.0594C45.9065 30.1494 46.1165 30.2344 46.2765 30.3144C46.4415 30.3944 46.5815 30.5069 46.6965 30.6519C46.8115 30.7919 46.869 30.9744 46.869 31.1994C46.869 31.4394 46.8015 31.6419 46.6665 31.8069C46.5365 31.9719 46.364 32.0969 46.149 32.1819C45.934 32.2619 45.7065 32.3019 45.4665 32.3019ZM53.8029 29.5419C53.9029 29.5419 53.9854 29.5694 54.0504 29.6244C54.1204 29.6794 54.1554 29.7669 54.1554 29.8869C54.1554 30.0019 54.1204 30.0869 54.0504 30.1419C53.9854 30.1969 53.9029 30.2244 53.8029 30.2244H53.7054L53.7504 31.9044C53.7554 32.0144 53.7254 32.1019 53.6604 32.1669C53.5954 32.2319 53.5029 32.2644 53.3829 32.2644C53.2679 32.2644 53.1754 32.2344 53.1054 32.1744C53.0404 32.1144 53.0054 32.0319 53.0004 31.9269L52.9479 30.2094L50.6679 30.1719L50.5179 32.0319C50.4979 32.2119 50.3729 32.3019 50.1429 32.3019C49.8729 32.3019 49.7479 32.1944 49.7679 31.9794L49.9104 30.1569H49.7979C49.7079 30.1569 49.6304 30.1269 49.5654 30.0669C49.5004 30.0069 49.4679 29.9244 49.4679 29.8194C49.4679 29.7094 49.5004 29.6269 49.5654 29.5719C49.6304 29.5119 49.7154 29.4819 49.8204 29.4819H49.9629L50.1504 27.1644C50.1554 27.0644 50.1929 26.9869 50.2629 26.9319C50.3379 26.8719 50.4304 26.8419 50.5404 26.8419C50.6704 26.8419 50.7654 26.8769 50.8254 26.9469C50.8854 27.0169 50.9104 27.1069 50.9004 27.2169L50.7204 29.4969L52.9254 29.5269L52.8579 27.2019C52.8579 27.0919 52.8904 27.0044 52.9554 26.9394C53.0204 26.8744 53.1129 26.8419 53.2329 26.8419C53.3479 26.8419 53.4379 26.8744 53.5029 26.9394C53.5729 26.9994 53.6104 27.0769 53.6154 27.1719L53.6829 29.5419H53.8029ZM56.5765 32.3019C56.1515 32.3019 55.7865 32.2144 55.4815 32.0394C55.1815 31.8644 54.954 31.6294 54.799 31.3344C54.649 31.0394 54.574 30.7144 54.574 30.3594C54.574 29.9944 54.6565 29.6644 54.8215 29.3694C54.9865 29.0694 55.219 28.8344 55.519 28.6644C55.819 28.4894 56.1615 28.4019 56.5465 28.4019C56.8865 28.4019 57.1915 28.4719 57.4615 28.6119C57.7365 28.7469 57.9515 28.9394 58.1065 29.1894C58.2615 29.4394 58.339 29.7244 58.339 30.0444C58.339 30.2144 58.314 30.3369 58.264 30.4119C58.214 30.4819 58.1115 30.5194 57.9565 30.5244L55.249 30.5619C55.249 30.7269 55.3015 30.8969 55.4065 31.0719C55.5115 31.2469 55.6615 31.3944 55.8565 31.5144C56.0565 31.6294 56.289 31.6869 56.554 31.6869C56.744 31.6869 56.904 31.6619 57.034 31.6119C57.169 31.5569 57.2765 31.4944 57.3565 31.4244C57.4365 31.3494 57.5315 31.2519 57.6415 31.1319C57.6965 31.0769 57.7665 31.0494 57.8515 31.0494C57.9315 31.0494 58.0065 31.0819 58.0765 31.1469C58.1515 31.2069 58.189 31.2769 58.189 31.3569C58.189 31.4219 58.1665 31.4844 58.1215 31.5444C57.9815 31.7444 57.794 31.9219 57.559 32.0769C57.324 32.2269 56.9965 32.3019 56.5765 32.3019ZM57.634 29.9919C57.664 29.9919 57.684 29.9844 57.694 29.9694C57.709 29.9494 57.7165 29.9219 57.7165 29.8869C57.7165 29.6219 57.604 29.4069 57.379 29.2419C57.159 29.0719 56.8815 28.9869 56.5465 28.9869C56.2915 28.9869 56.064 29.0469 55.864 29.1669C55.669 29.2869 55.5165 29.4319 55.4065 29.6019C55.3015 29.7669 55.249 29.9119 55.249 30.0369L57.634 29.9919ZM62.3814 31.6569C62.4564 31.6669 62.5139 31.6919 62.5539 31.7319C62.5989 31.7719 62.6214 31.8394 62.6214 31.9344C62.6214 32.0244 62.5989 32.0994 62.5539 32.1594C62.5089 32.2194 62.4464 32.2494 62.3664 32.2494C62.1614 32.2494 62.0064 32.2194 61.9014 32.1594C61.8014 32.0994 61.7089 31.9869 61.6239 31.8219C61.4139 32.1619 61.0239 32.3319 60.4539 32.3319C59.8739 32.3319 59.4464 32.1569 59.1714 31.8069C58.8964 31.4519 58.7589 31.0119 58.7589 30.4869C58.7589 30.1369 58.8289 29.8144 58.9689 29.5194C59.1089 29.2244 59.3139 28.9894 59.5839 28.8144C59.8539 28.6394 60.1689 28.5519 60.5289 28.5519C60.7589 28.5519 60.9614 28.5969 61.1364 28.6869C61.3164 28.7769 61.4514 28.8994 61.5414 29.0544L61.5639 28.8669C61.5839 28.6869 61.6914 28.5969 61.8864 28.5969C62.0164 28.5969 62.1089 28.6269 62.1639 28.6869C62.2189 28.7419 62.2414 28.8119 62.2314 28.8969C62.1814 29.2719 62.1514 29.5544 62.1414 29.7444C62.1264 29.9244 62.1189 30.1594 62.1189 30.4494V30.9444C62.1189 31.2044 62.1314 31.3844 62.1564 31.4844C62.1864 31.5844 62.2614 31.6419 62.3814 31.6569ZM61.3839 30.9444C61.3889 30.7194 61.3914 30.4119 61.3914 30.0219C61.3914 29.8169 61.3464 29.6494 61.2564 29.5194C61.1714 29.3894 61.0639 29.2944 60.9339 29.2344C60.8089 29.1744 60.6814 29.1444 60.5514 29.1444C60.3264 29.1444 60.1339 29.2119 59.9739 29.3469C59.8189 29.4769 59.7014 29.6444 59.6214 29.8494C59.5464 30.0544 59.5089 30.2669 59.5089 30.4869C59.5089 30.8219 59.5864 31.1144 59.7414 31.3644C59.9014 31.6094 60.1489 31.7319 60.4839 31.7319C60.7489 31.7319 60.9639 31.6644 61.1289 31.5294C61.2939 31.3944 61.3789 31.1994 61.3839 30.9444ZM63.5573 32.1894C63.4473 32.1894 63.3598 32.1594 63.2948 32.0994C63.2298 32.0394 63.1973 31.9619 63.1973 31.8669L63.1523 26.6469C63.1523 26.5469 63.1873 26.4669 63.2573 26.4069C63.3323 26.3469 63.4248 26.3169 63.5348 26.3169C63.6448 26.3169 63.7323 26.3469 63.7973 26.4069C63.8623 26.4669 63.8948 26.5444 63.8948 26.6394L63.9323 31.8594C63.9323 31.9594 63.8973 32.0394 63.8273 32.0994C63.7573 32.1594 63.6673 32.1894 63.5573 32.1894ZM66.8011 30.9444C66.9161 30.9444 66.9986 30.9694 67.0486 31.0194C67.0986 31.0694 67.1236 31.1544 67.1236 31.2744C67.1236 31.5594 67.0311 31.7969 66.8461 31.9869C66.6611 32.1719 66.4261 32.2644 66.1411 32.2644C65.7461 32.2644 65.4611 32.0969 65.2861 31.7619C65.1111 31.4219 65.0236 30.8919 65.0236 30.1719C65.0236 29.9169 65.0311 29.6619 65.0461 29.4069L64.6861 29.3844C64.4911 29.3744 64.3936 29.2719 64.3936 29.0769C64.3936 28.9769 64.4186 28.9044 64.4686 28.8594C64.5236 28.8094 64.6111 28.7869 64.7311 28.7919L65.0986 28.8144C65.1286 28.4994 65.1861 28.0619 65.2711 27.5019C65.3011 27.3219 65.4236 27.2319 65.6386 27.2319C65.7636 27.2319 65.8586 27.2644 65.9236 27.3294C65.9936 27.3944 66.0236 27.4719 66.0136 27.5619C65.9436 27.9969 65.8836 28.4269 65.8336 28.8519C66.1036 28.8619 66.2811 28.8669 66.3661 28.8669C66.4611 28.8669 66.5311 28.8894 66.5761 28.9344C66.6211 28.9744 66.6436 29.0394 66.6436 29.1294C66.6436 29.2394 66.6186 29.3169 66.5686 29.3619C66.5236 29.4019 66.4386 29.4244 66.3136 29.4294H65.7811C65.7661 29.6694 65.7586 29.9169 65.7586 30.1719C65.7586 30.6769 65.7911 31.0519 65.8561 31.2969C65.9211 31.5369 66.0361 31.6569 66.2011 31.6569C66.3911 31.6569 66.4936 31.5094 66.5086 31.2144C66.5086 31.1244 66.5286 31.0569 66.5686 31.0119C66.6136 30.9669 66.6911 30.9444 66.8011 30.9444ZM70.8516 29.4069C70.9166 29.6819 70.9616 30.0294 70.9866 30.4494C71.0166 30.8644 71.0316 31.3694 71.0316 31.9644C71.0316 32.0444 70.9941 32.1119 70.9191 32.1669C70.8491 32.2219 70.7616 32.2494 70.6566 32.2494C70.5516 32.2494 70.4641 32.2219 70.3941 32.1669C70.3241 32.1119 70.2891 32.0319 70.2891 31.9269C70.2891 30.6669 70.2391 29.8594 70.1391 29.5044C70.0891 29.3244 70.0141 29.1969 69.9141 29.1219C69.8141 29.0419 69.6866 29.0019 69.5316 29.0019C69.1866 29.0019 68.9216 29.1419 68.7366 29.4219C68.5566 29.6969 68.4666 30.0244 68.4666 30.4044V31.9719C68.4666 32.0519 68.4316 32.1169 68.3616 32.1669C68.2916 32.2169 68.2041 32.2419 68.0991 32.2419C67.9891 32.2419 67.8991 32.2169 67.8291 32.1669C67.7591 32.1119 67.7241 32.0444 67.7241 31.9644C67.7241 30.9544 67.7366 29.9869 67.7616 29.0619C67.7816 28.3469 67.8216 27.5569 67.8816 26.6919C67.8966 26.4769 68.0191 26.3694 68.2491 26.3694C68.3591 26.3694 68.4441 26.3944 68.5041 26.4444C68.5691 26.4894 68.5991 26.5569 68.5941 26.6469L68.5191 28.0869L68.4741 28.9119C68.5941 28.7569 68.7516 28.6294 68.9466 28.5294C69.1416 28.4294 69.3766 28.3794 69.6516 28.3794C69.9816 28.3794 70.2416 28.4644 70.4316 28.6344C70.6216 28.7994 70.7616 29.0569 70.8516 29.4069ZM77.8765 31.5444C78.0115 31.6094 78.079 31.6919 78.079 31.7919C78.079 31.8769 78.049 31.9519 77.989 32.0169C77.929 32.0819 77.854 32.1144 77.764 32.1144C77.699 32.1144 77.6215 32.0919 77.5315 32.0469C77.2765 31.9319 77.0315 31.8119 76.7965 31.6869C76.5915 31.8369 76.364 31.9544 76.114 32.0394C75.864 32.1244 75.609 32.1669 75.349 32.1669C75.004 32.1669 74.704 32.0944 74.449 31.9494C74.194 31.8044 73.999 31.6169 73.864 31.3869C73.729 31.1569 73.6615 30.9169 73.6615 30.6669C73.6615 30.4169 73.724 30.1694 73.849 29.9244C73.974 29.6744 74.1365 29.4619 74.3365 29.2869C74.1515 29.1769 74.004 29.0294 73.894 28.8444C73.789 28.6594 73.7365 28.4569 73.7365 28.2369C73.7365 28.0119 73.794 27.8094 73.909 27.6294C74.029 27.4494 74.189 27.3094 74.389 27.2094C74.594 27.1094 74.819 27.0594 75.064 27.0594C75.319 27.0594 75.549 27.1094 75.754 27.2094C75.959 27.3094 76.119 27.4544 76.234 27.6444C76.354 27.8344 76.414 28.0544 76.414 28.3044C76.414 28.5994 76.3265 28.8319 76.1515 29.0019C75.9765 29.1669 75.7415 29.2944 75.4465 29.3844C75.8315 30.0944 76.219 30.5969 76.609 30.8919L76.6465 30.9219C76.7815 30.7219 76.849 30.5194 76.849 30.3144C76.849 30.2294 76.8365 30.1344 76.8115 30.0294C76.7915 29.9244 76.769 29.8494 76.744 29.8044C76.714 29.7444 76.699 29.7019 76.699 29.6769C76.699 29.6119 76.7365 29.5519 76.8115 29.4969C76.8865 29.4419 76.9665 29.4144 77.0515 29.4144C77.1965 29.4144 77.304 29.4719 77.374 29.5869C77.424 29.6619 77.464 29.7694 77.494 29.9094C77.529 30.0494 77.5465 30.1869 77.5465 30.3219C77.5465 30.6469 77.4415 30.9544 77.2315 31.2444C77.2915 31.2744 77.4015 31.3244 77.5615 31.3944C77.5915 31.4094 77.6965 31.4594 77.8765 31.5444ZM75.079 27.5994C74.909 27.5994 74.7565 27.6594 74.6215 27.7794C74.4865 27.8944 74.419 28.0569 74.419 28.2669C74.419 28.4419 74.469 28.5919 74.569 28.7169C74.674 28.8369 74.8315 28.9044 75.0415 28.9194C75.2615 28.8844 75.434 28.8244 75.559 28.7394C75.689 28.6544 75.754 28.5044 75.754 28.2894C75.754 28.0694 75.6865 27.8994 75.5515 27.7794C75.4165 27.6594 75.259 27.5994 75.079 27.5994ZM75.349 31.6194C75.664 31.6194 75.959 31.5219 76.234 31.3269L76.1365 31.2519C75.8915 31.0569 75.664 30.8169 75.454 30.5319C75.244 30.2469 75.0715 29.9219 74.9365 29.5569C74.7265 29.6719 74.574 29.8369 74.479 30.0519C74.389 30.2669 74.344 30.4694 74.344 30.6594C74.344 30.9194 74.4315 31.1444 74.6065 31.3344C74.7865 31.5244 75.034 31.6194 75.349 31.6194ZM82.3074 32.2494C82.1874 32.2494 82.0799 32.2194 81.9849 32.1594C81.8899 32.0994 81.8299 32.0194 81.8049 31.9194C81.7649 31.7844 81.6674 31.3919 81.5124 30.7419C81.4074 30.2619 81.2999 29.8144 81.1899 29.3994C81.0199 28.7344 80.8399 28.0794 80.6499 27.4344C80.6399 27.3844 80.6349 27.3419 80.6349 27.3069C80.6349 27.2069 80.6724 27.1269 80.7474 27.0669C80.8224 27.0019 80.9224 26.9694 81.0474 26.9694C81.1374 26.9694 81.2099 26.9894 81.2649 27.0294C81.3199 27.0694 81.3574 27.1344 81.3774 27.2244L81.5049 27.6894C81.6599 28.2444 81.7924 28.7569 81.9024 29.2269L82.0824 30.0144C82.1724 30.4094 82.2399 30.6994 82.2849 30.8844C82.3299 31.0694 82.3649 31.1619 82.3899 31.1619C82.4099 31.1619 82.4374 31.1219 82.4724 31.0419C82.5124 30.9569 82.5474 30.8744 82.5774 30.7944C82.6074 30.7144 82.6299 30.6569 82.6449 30.6219L82.8474 30.1194C83.0124 29.7244 83.1324 29.4569 83.2074 29.3169C83.2874 29.1719 83.3774 29.0994 83.4774 29.0994C83.5774 29.0994 83.6674 29.1644 83.7474 29.2944C83.8324 29.4244 83.9599 29.6694 84.1299 30.0294L84.2049 30.1869L84.4149 30.6294C84.4799 30.7744 84.5374 30.8994 84.5874 31.0044C84.6424 31.1044 84.6799 31.1544 84.6999 31.1544C84.7149 31.1544 84.7449 31.0444 84.7899 30.8244C84.8399 30.6044 84.8924 30.3569 84.9474 30.0819L85.1124 29.2419C85.2574 28.5469 85.4074 27.8744 85.5624 27.2244C85.5824 27.1444 85.6224 27.0844 85.6824 27.0444C85.7424 26.9994 85.8199 26.9769 85.9149 26.9769C86.0299 26.9769 86.1249 27.0094 86.1999 27.0744C86.2749 27.1344 86.3124 27.2169 86.3124 27.3219C86.3124 27.3619 86.3099 27.3944 86.3049 27.4194C86.1999 27.8194 86.0424 28.4769 85.8324 29.3919C85.7574 29.7169 85.6649 30.1494 85.5549 30.6894C85.4599 31.1644 85.3774 31.5594 85.3074 31.8744C85.2624 32.1144 85.1024 32.2344 84.8274 32.2344C84.6824 32.2344 84.5474 32.1669 84.4224 32.0319C84.3024 31.8969 84.1549 31.6544 83.9799 31.3044C83.8999 31.1394 83.8174 30.9619 83.7324 30.7719C83.6124 30.4819 83.5399 30.3369 83.5149 30.3369C83.4999 30.3369 83.4774 30.3694 83.4474 30.4344C83.4224 30.4944 83.3949 30.5594 83.3649 30.6294C83.3399 30.6944 83.3174 30.7519 83.2974 30.8019C83.2074 31.0369 83.1299 31.2244 83.0649 31.3644C82.9099 31.7094 82.7774 31.9444 82.6674 32.0694C82.5624 32.1894 82.4424 32.2494 82.3074 32.2494ZM88.726 32.3019C88.301 32.3019 87.936 32.2144 87.631 32.0394C87.331 31.8644 87.1035 31.6294 86.9485 31.3344C86.7985 31.0394 86.7235 30.7144 86.7235 30.3594C86.7235 29.9944 86.806 29.6644 86.971 29.3694C87.136 29.0694 87.3685 28.8344 87.6685 28.6644C87.9685 28.4894 88.311 28.4019 88.696 28.4019C89.036 28.4019 89.341 28.4719 89.611 28.6119C89.886 28.7469 90.101 28.9394 90.256 29.1894C90.411 29.4394 90.4885 29.7244 90.4885 30.0444C90.4885 30.2144 90.4635 30.3369 90.4135 30.4119C90.3635 30.4819 90.261 30.5194 90.106 30.5244L87.3985 30.5619C87.3985 30.7269 87.451 30.8969 87.556 31.0719C87.661 31.2469 87.811 31.3944 88.006 31.5144C88.206 31.6294 88.4385 31.6869 88.7035 31.6869C88.8935 31.6869 89.0535 31.6619 89.1835 31.6119C89.3185 31.5569 89.426 31.4944 89.506 31.4244C89.586 31.3494 89.681 31.2519 89.791 31.1319C89.846 31.0769 89.916 31.0494 90.001 31.0494C90.081 31.0494 90.156 31.0819 90.226 31.1469C90.301 31.2069 90.3385 31.2769 90.3385 31.3569C90.3385 31.4219 90.316 31.4844 90.271 31.5444C90.131 31.7444 89.9435 31.9219 89.7085 32.0769C89.4735 32.2269 89.146 32.3019 88.726 32.3019ZM89.7835 29.9919C89.8135 29.9919 89.8335 29.9844 89.8435 29.9694C89.8585 29.9494 89.866 29.9219 89.866 29.8869C89.866 29.6219 89.7535 29.4069 89.5285 29.2419C89.3085 29.0719 89.031 28.9869 88.696 28.9869C88.441 28.9869 88.2135 29.0469 88.0135 29.1669C87.8185 29.2869 87.666 29.4319 87.556 29.6019C87.451 29.7669 87.3985 29.9119 87.3985 30.0369L89.7835 29.9919ZM91.456 32.1894C91.346 32.1894 91.2585 32.1594 91.1935 32.0994C91.1285 32.0394 91.096 31.9619 91.096 31.8669L91.051 26.6469C91.051 26.5469 91.086 26.4669 91.156 26.4069C91.231 26.3469 91.3235 26.3169 91.4335 26.3169C91.5435 26.3169 91.631 26.3469 91.696 26.4069C91.761 26.4669 91.7935 26.5444 91.7935 26.6394L91.831 31.8594C91.831 31.9594 91.796 32.0394 91.726 32.0994C91.656 32.1594 91.566 32.1894 91.456 32.1894ZM92.9822 32.1894C92.8722 32.1894 92.7847 32.1594 92.7197 32.0994C92.6547 32.0394 92.6222 31.9619 92.6222 31.8669L92.5772 26.6469C92.5772 26.5469 92.6122 26.4669 92.6822 26.4069C92.7572 26.3469 92.8497 26.3169 92.9597 26.3169C93.0697 26.3169 93.1572 26.3469 93.2222 26.4069C93.2872 26.4669 93.3197 26.5444 93.3197 26.6394L93.3572 31.8594C93.3572 31.9594 93.3222 32.0394 93.2522 32.0994C93.1822 32.1594 93.0922 32.1894 92.9822 32.1894ZM96.046 28.4394C96.406 28.4394 96.7285 28.5194 97.0135 28.6794C97.3035 28.8344 97.5285 29.0594 97.6885 29.3544C97.8535 29.6444 97.936 29.9844 97.936 30.3744C97.936 30.7894 97.846 31.1394 97.666 31.4244C97.486 31.7094 97.251 31.9219 96.961 32.0619C96.671 32.2019 96.3585 32.2719 96.0235 32.2719C95.7385 32.2719 95.4685 32.2119 95.2135 32.0919C94.9635 31.9669 94.7935 31.8369 94.7035 31.7019C94.6635 31.8019 94.601 31.8944 94.516 31.9794C94.436 32.0594 94.3635 32.1144 94.2985 32.1444C94.2485 32.1694 94.1935 32.1819 94.1335 32.1819C94.0435 32.1819 93.966 32.1494 93.901 32.0844C93.836 32.0144 93.8035 31.9394 93.8035 31.8594C93.8035 31.7844 93.8335 31.7194 93.8935 31.6644C93.9085 31.6494 93.9385 31.6244 93.9835 31.5894C94.0335 31.5494 94.071 31.4969 94.096 31.4319C94.126 31.3419 94.141 31.1944 94.141 30.9894L94.126 30.2619C94.126 30.1419 94.121 29.8519 94.111 29.3919C94.101 28.7619 94.096 28.3444 94.096 28.1394C94.086 27.2194 94.071 26.5169 94.051 26.0319C94.046 25.9369 94.0785 25.8619 94.1485 25.8069C94.2235 25.7519 94.316 25.7244 94.426 25.7244C94.526 25.7244 94.6085 25.7494 94.6735 25.7994C94.7435 25.8494 94.781 25.9169 94.786 26.0019C94.821 26.6619 94.841 27.3719 94.846 28.1319L94.861 28.8894C94.971 28.7594 95.126 28.6519 95.326 28.5669C95.526 28.4819 95.766 28.4394 96.046 28.4394ZM96.016 31.6794C96.216 31.6794 96.4035 31.6319 96.5785 31.5369C96.7585 31.4419 96.9035 31.2969 97.0135 31.1019C97.1285 30.9019 97.186 30.6544 97.186 30.3594C97.186 29.9394 97.076 29.6144 96.856 29.3844C96.636 29.1494 96.346 29.0319 95.986 29.0319C95.736 29.0319 95.511 29.0944 95.311 29.2194C95.116 29.3444 94.971 29.4819 94.876 29.6319V30.1944C94.876 30.4244 94.8835 30.6519 94.8985 30.8769C94.9085 31.0169 94.966 31.1494 95.071 31.2744C95.181 31.3944 95.3185 31.4919 95.4835 31.5669C95.6535 31.6419 95.831 31.6794 96.016 31.6794ZM100.339 32.3019C99.9139 32.3019 99.5489 32.2144 99.2439 32.0394C98.9439 31.8644 98.7164 31.6294 98.5614 31.3344C98.4114 31.0394 98.3364 30.7144 98.3364 30.3594C98.3364 29.9944 98.4189 29.6644 98.5839 29.3694C98.7489 29.0694 98.9814 28.8344 99.2814 28.6644C99.5814 28.4894 99.9239 28.4019 100.309 28.4019C100.649 28.4019 100.954 28.4719 101.224 28.6119C101.499 28.7469 101.714 28.9394 101.869 29.1894C102.024 29.4394 102.101 29.7244 102.101 30.0444C102.101 30.2144 102.076 30.3369 102.026 30.4119C101.976 30.4819 101.874 30.5194 101.719 30.5244L99.0114 30.5619C99.0114 30.7269 99.0639 30.8969 99.1689 31.0719C99.2739 31.2469 99.4239 31.3944 99.6189 31.5144C99.8189 31.6294 100.051 31.6869 100.316 31.6869C100.506 31.6869 100.666 31.6619 100.796 31.6119C100.931 31.5569 101.039 31.4944 101.119 31.4244C101.199 31.3494 101.294 31.2519 101.404 31.1319C101.459 31.0769 101.529 31.0494 101.614 31.0494C101.694 31.0494 101.769 31.0819 101.839 31.1469C101.914 31.2069 101.951 31.2769 101.951 31.3569C101.951 31.4219 101.929 31.4844 101.884 31.5444C101.744 31.7444 101.556 31.9219 101.321 32.0769C101.086 32.2269 100.759 32.3019 100.339 32.3019ZM101.396 29.9919C101.426 29.9919 101.446 29.9844 101.456 29.9694C101.471 29.9494 101.479 29.9219 101.479 29.8869C101.479 29.6219 101.366 29.4069 101.141 29.2419C100.921 29.0719 100.644 28.9869 100.309 28.9869C100.054 28.9869 99.8264 29.0469 99.6264 29.1669C99.4314 29.2869 99.2789 29.4319 99.1689 29.6019C99.0639 29.7669 99.0114 29.9119 99.0114 30.0369L101.396 29.9919ZM103.391 28.1244C103.236 28.1244 103.109 28.0744 103.009 27.9744C102.909 27.8694 102.859 27.7394 102.859 27.5844C102.859 27.4344 102.909 27.3094 103.009 27.2094C103.114 27.1094 103.246 27.0594 103.406 27.0594C103.566 27.0594 103.694 27.1069 103.789 27.2019C103.889 27.2969 103.939 27.4219 103.939 27.5769C103.939 27.7319 103.886 27.8619 103.781 27.9669C103.681 28.0719 103.551 28.1244 103.391 28.1244ZM103.286 32.2119C103.171 32.2119 103.079 32.1844 103.009 32.1294C102.939 32.0744 102.904 31.9969 102.904 31.8969L102.979 28.8519C102.979 28.7519 103.014 28.6744 103.084 28.6194C103.154 28.5594 103.244 28.5294 103.354 28.5294C103.464 28.5294 103.554 28.5594 103.624 28.6194C103.699 28.6794 103.736 28.7594 103.736 28.8594L103.661 31.9044C103.656 32.0044 103.619 32.0819 103.549 32.1369C103.484 32.1869 103.396 32.2119 103.286 32.2119ZM106.549 28.4319C106.974 28.4319 107.297 28.5844 107.517 28.8894C107.742 29.1894 107.854 29.6394 107.854 30.2394V31.9719C107.854 32.0669 107.822 32.1394 107.757 32.1894C107.692 32.2344 107.604 32.2569 107.494 32.2569C107.384 32.2569 107.292 32.2344 107.217 32.1894C107.142 32.1444 107.104 32.0769 107.104 31.9869L107.112 30.2319C107.112 29.8169 107.064 29.5169 106.969 29.3319C106.879 29.1419 106.717 29.0469 106.482 29.0469C106.032 29.0469 105.739 29.4069 105.604 30.1269C105.559 30.3469 105.537 30.6119 105.537 30.9219L105.544 31.9869C105.544 32.0769 105.512 32.1469 105.447 32.1969C105.382 32.2419 105.294 32.2644 105.184 32.2644C105.064 32.2644 104.969 32.2394 104.899 32.1894C104.834 32.1344 104.802 32.0669 104.802 31.9869C104.802 31.4869 104.792 30.9069 104.772 30.2469C104.762 29.8569 104.757 29.5869 104.757 29.4369C104.752 29.3269 104.734 29.2419 104.704 29.1819C104.679 29.1169 104.629 29.0219 104.554 28.8969C104.534 28.8469 104.524 28.8044 104.524 28.7694C104.524 28.6944 104.567 28.6244 104.652 28.5594C104.737 28.4944 104.819 28.4619 104.899 28.4619C104.984 28.4619 105.067 28.5169 105.147 28.6269C105.282 28.8219 105.349 28.9994 105.349 29.1594V29.2494C105.439 29.0144 105.579 28.8194 105.769 28.6644C105.964 28.5094 106.224 28.4319 106.549 28.4319ZM111.876 31.1844C111.916 31.4494 111.943 31.6569 111.958 31.8069C111.978 31.9569 111.988 32.1019 111.988 32.2419C111.988 32.6119 111.911 32.9394 111.756 33.2244C111.606 33.5094 111.391 33.7319 111.111 33.8919C110.836 34.0519 110.516 34.1319 110.151 34.1319C109.871 34.1319 109.613 34.0769 109.378 33.9669C109.143 33.8569 108.956 33.7069 108.816 33.5169C108.676 33.3269 108.606 33.1219 108.606 32.9019C108.606 32.7119 108.723 32.6169 108.958 32.6169C109.108 32.6169 109.198 32.6894 109.228 32.8344C109.278 33.0644 109.381 33.2344 109.536 33.3444C109.696 33.4594 109.896 33.5169 110.136 33.5169C110.496 33.5169 110.771 33.4069 110.961 33.1869C111.156 32.9669 111.253 32.6469 111.253 32.2269C111.253 32.0919 111.241 31.9419 111.216 31.7769C111.101 31.9169 110.943 32.0319 110.743 32.1219C110.548 32.2069 110.323 32.2494 110.068 32.2494C109.708 32.2494 109.388 32.1669 109.108 32.0019C108.833 31.8319 108.621 31.6044 108.471 31.3194C108.321 31.0344 108.246 30.7244 108.246 30.3894C108.246 30.0444 108.318 29.7244 108.463 29.4294C108.613 29.1344 108.823 28.9019 109.093 28.7319C109.368 28.5569 109.681 28.4694 110.031 28.4694C110.421 28.4694 110.728 28.5669 110.953 28.7619C110.973 28.7019 111.018 28.5919 111.088 28.4319C111.138 28.3319 111.221 28.2819 111.336 28.2819C111.431 28.2819 111.521 28.3094 111.606 28.3644C111.696 28.4144 111.743 28.4794 111.748 28.5594C111.748 28.5944 111.746 28.6194 111.741 28.6344C111.656 28.9044 111.606 29.0744 111.591 29.1444L111.846 30.9744L111.876 31.1844ZM110.106 31.6194C110.326 31.6194 110.538 31.5594 110.743 31.4394C110.953 31.3194 111.078 31.1894 111.118 31.0494C111.088 30.7644 111.031 30.3719 110.946 29.8719C110.941 29.8219 110.921 29.6944 110.886 29.4894C110.841 29.3944 110.741 29.3044 110.586 29.2194C110.436 29.1344 110.266 29.0919 110.076 29.0919C109.866 29.0919 109.678 29.1494 109.513 29.2644C109.348 29.3744 109.218 29.5294 109.123 29.7294C109.033 29.9244 108.988 30.1419 108.988 30.3819C108.988 30.7269 109.083 31.0194 109.273 31.2594C109.468 31.4994 109.746 31.6194 110.106 31.6194Z" fill="#252948"/>
<path d="M36.25 21.0749C36.25 21.2049 35.8427 21.2699 35.028 21.2699L34.3 21.2309C33.8667 21.1963 33.65 21.1356 33.65 21.0489V12.3259C33.65 12.1786 34.0833 12.1049 34.95 12.1049C35.8167 12.1049 36.25 12.1786 36.25 12.3259V15.6539L37.836 12.3259C37.8967 12.2046 38.2433 12.1439 38.876 12.1439C40.0287 12.1439 40.6353 12.2436 40.696 12.4429C40.696 12.4603 40.6917 12.4776 40.683 12.4949L38.421 16.5769L41.047 20.2039C41.047 20.2213 40.9647 20.2949 40.8 20.4249C40.4013 20.7716 39.9333 21.0446 39.396 21.2439C39.2313 21.3046 39.0667 21.3349 38.902 21.3349L38.59 21.3089C38.3127 21.2396 38.096 21.0619 37.94 20.7759L36.458 17.9419H36.25V21.0749ZM48.7835 21.0359C48.7835 21.1833 48.3459 21.2569 47.4705 21.2569C46.5952 21.2569 46.1575 21.1833 46.1575 21.0359V18.0459H44.3375V21.0359C44.3375 21.1833 43.8999 21.2569 43.0245 21.2569C42.1492 21.2569 41.7115 21.1833 41.7115 21.0359V12.4169C41.7115 12.2349 42.1492 12.1439 43.0245 12.1439C43.8999 12.1439 44.3375 12.2349 44.3375 12.4169V15.4719H46.1575V12.4429C46.1575 12.3216 46.3742 12.2349 46.8075 12.1829C47.0329 12.1656 47.2539 12.1569 47.4705 12.1569L48.1335 12.1829C48.5669 12.2349 48.7835 12.3216 48.7835 12.4429V21.0359ZM56.1877 21.2829C55.4337 21.2829 55.0264 21.1616 54.9657 20.9189L54.5367 19.2419H52.4697L52.0927 20.8539C52.0407 21.1226 51.6247 21.2569 50.8447 21.2569C50.4287 21.2569 50.1211 21.2353 49.9217 21.1919C49.7224 21.1399 49.6227 21.1009 49.6227 21.0749L51.9237 12.2739C51.9237 12.2046 52.5174 12.1699 53.7047 12.1699C54.8921 12.1699 55.4857 12.2046 55.4857 12.2739L57.7347 21.0879C57.7347 21.1486 57.5354 21.1963 57.1367 21.2309C56.7381 21.2656 56.4217 21.2829 56.1877 21.2829ZM52.7947 17.5909H54.1597L53.5747 14.8999H53.4967L52.7947 17.5909ZM57.7623 12.2869C57.7363 12.1916 58.1739 12.1439 59.0753 12.1439C60.0719 12.1439 60.5833 12.2263 60.6093 12.3909L61.2463 17.8639L62.6243 12.3259C62.6676 12.1959 63.0056 12.1309 63.6383 12.1309C64.2709 12.1309 64.6089 12.1916 64.6523 12.3129L66.0043 17.8899L66.7583 12.3649C66.7756 12.2696 66.9749 12.2046 67.3563 12.1699C67.7376 12.1353 68.0453 12.1179 68.2793 12.1179C69.1893 12.1179 69.6313 12.1786 69.6053 12.2999L68.0323 20.9189C67.9976 21.0489 67.7506 21.1443 67.2913 21.2049C66.8319 21.2656 66.4593 21.2959 66.1733 21.2959C65.0986 21.2959 64.5353 21.1746 64.4833 20.9319L63.5993 17.3569L62.6373 20.9189C62.6026 21.0749 62.2993 21.1876 61.7273 21.2569C61.4326 21.2829 61.1379 21.2959 60.8433 21.2959L60.0113 21.2569C59.4393 21.1963 59.1359 21.0879 59.1013 20.9319L57.7623 12.2869Z" fill="#252948"/>
<path d="M20.8594 17.0834C20.8594 24.1505 26.6683 29.0794 16.1575 29.0794C5.64683 29.0794 13.4892 24.5029 13.4892 17.4359C13.4892 10.3688 5.64679 8.08289 16.1575 8.08289C26.6682 8.08289 20.8594 10.0163 20.8594 17.0834Z" fill="#FFFBDC"/>
<path fill-rule="evenodd" clip-rule="evenodd" d="M16.07 10.2407C15.8023 10.2133 15.465 10.0525 15.0459 9.85285C14.3298 9.5116 13.3749 9.0566 12.1206 8.95892C11.0325 8.87418 9.85551 9.06897 8.77785 9.24733C6.60319 9.60725 4.83285 9.90026 5.01265 7.69432C5.28154 4.39523 8.16164 1.9281 11.4455 2.18383C13.8876 2.37401 15.8652 4.0164 16.6081 6.2027C17.7375 4.47533 19.7659 3.38201 22.0066 3.51612C25.2946 3.7129 27.7946 6.47797 27.5906 9.69207C27.4754 11.508 26.6832 10.9822 25.4228 10.1457C24.4524 9.50159 23.2045 8.67327 21.7742 8.58767C20.3589 8.50296 18.9957 9.15936 17.9183 9.67814C17.1068 10.0689 16.4574 10.3816 16.07 10.2407Z" fill="#D14267"/>
<path d="M15.6724 27.9598C15.9005 25.1622 16.8895 27.2666 19.6742 27.4834C22.4589 27.7003 25.9296 25.7582 25.7016 28.5558C25.4736 31.3534 23.0313 33.4455 20.2466 33.2286C17.4619 33.0118 15.4444 30.7573 15.6724 27.9598Z" fill="#D14267"/>
<path d="M11.7587 27.8886C8.97061 27.7217 6.99948 24.2265 6.82649 26.9521C6.6535 29.6776 8.7735 32.0223 11.5616 32.1892C14.3498 32.3561 16.7484 30.3447 16.9213 27.6191C17.0943 24.8936 14.5469 28.0555 11.7587 27.8886Z" fill="#D14267"/>
<path fill-rule="evenodd" clip-rule="evenodd" d="M17.9796 17.1181C17.9796 17.8125 18.2818 18.4364 18.7618 18.8653C19.1486 18.4476 19.3851 17.8885 19.3851 17.2743C19.3851 16.5799 19.0829 15.9561 18.6029 15.5271C18.2161 15.9449 17.9796 16.5039 17.9796 17.1181ZM16.331 17.2743C16.331 16.5799 16.0289 15.9561 15.5488 15.5271C15.162 15.9449 14.9256 16.5039 14.9256 17.1182C14.9256 17.8126 15.2278 18.4364 15.7078 18.8653C16.0946 18.4476 16.331 17.8885 16.331 17.2743Z" fill="#574144"/>
<path fill-rule="evenodd" clip-rule="evenodd" d="M16.1865 6.36291C15.8048 5.23917 15.891 3.96285 16.531 2.85429C17.1156 1.84188 18.0522 1.15951 19.097 0.872571C19.4787 1.99631 19.3924 3.27263 18.7524 4.38119C18.1679 5.39361 17.2312 6.07597 16.1865 6.36291Z" fill="#574144"/>
</svg>
