<svg width="112" height="35" viewBox="0 0 112 35" fill="none" xmlns="http://www.w3.org/2000/svg">
<path d="M35.688 3.16998C36.0773 3.16998 36.4187 3.22598 36.712 3.33798C37.0107 3.44465 37.16 3.59131 37.16 3.77798C37.16 3.96465 37.088 4.19665 36.944 4.47398C36.8053 4.74598 36.688 4.88198 36.592 4.88198C36.5653 4.88198 36.5333 4.86865 36.496 4.84198C36.464 4.80998 36.384 4.77798 36.256 4.74598C36.1333 4.70865 36.0267 4.68998 35.936 4.68998C35.6267 4.68998 35.376 4.79931 35.184 5.01798C34.9973 5.23665 34.904 5.57265 34.904 6.02598C34.904 6.47398 35 6.80731 35.192 7.02598C35.3893 7.24465 35.6373 7.35398 35.936 7.35398C36.0587 7.35398 36.1947 7.33798 36.344 7.30598C36.4987 7.26865 36.608 7.21798 36.672 7.15398C36.6827 7.14331 36.704 7.13798 36.736 7.13798C36.768 7.13798 36.8267 7.19931 36.912 7.32198C37.0027 7.43931 37.0853 7.59665 37.16 7.79398C37.2347 7.98598 37.272 8.13531 37.272 8.24198C37.272 8.44998 37.112 8.61531 36.792 8.73798C36.472 8.86065 36.0933 8.92198 35.656 8.92198C34.952 8.92198 34.3733 8.67398 33.92 8.17798C33.4667 7.68198 33.24 6.98331 33.24 6.08198C33.24 5.17531 33.472 4.46331 33.936 3.94598C34.4053 3.42865 34.9893 3.16998 35.688 3.16998ZM38.9087 8.36998C38.578 8.00198 38.4127 7.49265 38.4127 6.84198C38.4127 6.19131 38.578 5.68198 38.9087 5.31398C39.2447 4.94598 39.6954 4.76198 40.2607 4.76198C40.826 4.76198 41.274 4.94598 41.6047 5.31398C41.9354 5.68198 42.1007 6.19131 42.1007 6.84198C42.1007 7.49265 41.9354 8.00198 41.6047 8.36998C41.274 8.73798 40.826 8.92198 40.2607 8.92198C39.6954 8.92198 39.2447 8.73798 38.9087 8.36998ZM40.2607 6.09798C39.962 6.09798 39.8127 6.34331 39.8127 6.83398C39.8127 7.32465 39.962 7.56998 40.2607 7.56998C40.5647 7.56998 40.7167 7.32465 40.7167 6.83398C40.7167 6.34331 40.5647 6.09798 40.2607 6.09798ZM43.7306 8.36998C43.3999 8.00198 43.2346 7.49265 43.2346 6.84198C43.2346 6.19131 43.3999 5.68198 43.7306 5.31398C44.0666 4.94598 44.5173 4.76198 45.0826 4.76198C45.6479 4.76198 46.0959 4.94598 46.4266 5.31398C46.7573 5.68198 46.9226 6.19131 46.9226 6.84198C46.9226 7.49265 46.7573 8.00198 46.4266 8.36998C46.0959 8.73798 45.6479 8.92198 45.0826 8.92198C44.5173 8.92198 44.0666 8.73798 43.7306 8.36998ZM45.0826 6.09798C44.7839 6.09798 44.6346 6.34331 44.6346 6.83398C44.6346 7.32465 44.7839 7.56998 45.0826 7.56998C45.3866 7.56998 45.5386 7.32465 45.5386 6.83398C45.5386 6.34331 45.3866 6.09798 45.0826 6.09798ZM48.2085 3.30598C48.2085 3.22065 48.4511 3.17798 48.9365 3.17798C49.3898 3.19398 49.6165 3.22865 49.6165 3.28198V6.35398L50.4085 4.88998C50.4458 4.80998 50.6725 4.76998 51.0885 4.76998C51.5045 4.76998 51.7711 4.79665 51.8885 4.84998L50.8485 6.54598L52.0485 8.79398C52.0591 8.81531 51.9578 8.83131 51.7445 8.84198C51.5365 8.85798 51.3631 8.86598 51.2245 8.86598C50.7125 8.86598 50.4378 8.84198 50.4005 8.79398L49.6085 7.01798V8.78598C49.6085 8.85531 49.3738 8.88998 48.9045 8.88998C48.4405 8.88998 48.2085 8.85798 48.2085 8.79398V3.30598ZM54.6428 8.79398C54.6428 8.83665 54.3975 8.85798 53.9068 8.85798C53.4215 8.85798 53.1788 8.83931 53.1788 8.80198V4.87398C53.1788 4.83665 53.4215 4.81798 53.9068 4.81798C54.3975 4.81798 54.6428 4.83398 54.6428 4.86598V8.79398ZM54.6428 4.39398C54.6428 4.43131 54.3975 4.44998 53.9068 4.44998C53.4215 4.44998 53.1788 4.43398 53.1788 4.40198V3.24998C53.1788 3.19665 53.4215 3.16998 53.9068 3.16998C54.3975 3.16998 54.6428 3.18598 54.6428 3.21798V4.39398ZM59.1106 8.62598C58.7746 8.82331 58.3426 8.92198 57.8146 8.92198C57.2866 8.92198 56.8413 8.74331 56.4786 8.38598C56.116 8.02331 55.9346 7.52465 55.9346 6.88998C55.9346 6.24998 56.108 5.73531 56.4546 5.34598C56.8066 4.95665 57.2493 4.76198 57.7826 4.76198C58.316 4.76198 58.7266 4.89798 59.0146 5.16998C59.308 5.44198 59.4546 5.77265 59.4546 6.16198C59.4546 7.02598 58.9586 7.45798 57.9666 7.45798H57.4146C57.4146 7.61798 57.4573 7.72998 57.5426 7.79398C57.6333 7.85265 57.764 7.88198 57.9346 7.88198C58.308 7.88198 58.6626 7.79665 58.9986 7.62598C59.004 7.62065 59.028 7.65798 59.0706 7.73798C59.1986 7.96731 59.2626 8.16198 59.2626 8.32198C59.2626 8.47665 59.212 8.57798 59.1106 8.62598ZM58.1106 6.31398C58.1106 6.08998 58.0013 5.97798 57.7826 5.97798C57.6813 5.97798 57.5933 6.00998 57.5186 6.07398C57.4493 6.13265 57.4146 6.22065 57.4146 6.33798V6.58598H57.8466C58.0226 6.58598 58.1106 6.49531 58.1106 6.31398ZM61.5696 5.28998C61.4949 5.31131 61.4202 5.32198 61.3456 5.32198C61.2709 5.32198 61.1962 5.31131 61.1216 5.28998C60.9722 5.24731 60.8976 5.17798 60.8976 5.08198V3.39398C60.8976 3.29798 61.0122 3.22865 61.2416 3.18598C61.3536 3.16465 61.4682 3.15398 61.5856 3.15398C61.7029 3.15398 61.8202 3.16465 61.9376 3.18598C62.1669 3.22865 62.2816 3.29798 62.2816 3.39398L61.8016 5.08198C61.8016 5.17798 61.7242 5.24731 61.5696 5.28998ZM64.1015 7.40198C64.5335 7.66331 64.8749 7.79398 65.1255 7.79398C65.2855 7.79398 65.3655 7.73798 65.3655 7.62598C65.3655 7.54598 65.2269 7.44198 64.9495 7.31398C64.2829 7.04198 63.9495 6.59665 63.9495 5.97798C63.9495 5.58331 64.0935 5.28198 64.3815 5.07398C64.6695 4.86598 65.0135 4.76198 65.4135 4.76198C65.8189 4.76198 66.1602 4.80465 66.4375 4.88998C66.7202 4.97531 66.8615 5.08731 66.8615 5.22598C66.8615 5.34331 66.8029 5.49798 66.6855 5.68998C66.5735 5.88198 66.4962 5.98598 66.4535 6.00198C66.2242 5.87398 65.9762 5.80998 65.7095 5.80998C65.5655 5.80998 65.4935 5.86065 65.4935 5.96198C65.4935 6.02598 65.5202 6.08198 65.5735 6.12998C65.6322 6.17265 65.7362 6.22865 65.8855 6.29798C66.0349 6.36198 66.1575 6.42065 66.2535 6.47398C66.3549 6.52731 66.4669 6.60198 66.5895 6.69798C66.8455 6.90065 66.9735 7.16465 66.9735 7.48998C66.9735 7.91665 66.8322 8.26331 66.5495 8.52998C66.2669 8.79131 65.8402 8.92198 65.2695 8.92198C64.8909 8.92198 64.5469 8.85798 64.2375 8.72998C63.9282 8.60198 63.7735 8.42598 63.7735 8.20198C63.7735 8.05265 63.8082 7.89531 63.8775 7.72998C63.9522 7.56465 64.0269 7.45531 64.1015 7.40198Z" fill="#252948"/>
<path d="M37.1175 27.6145C37.2225 27.6145 37.31 27.6495 37.38 27.7195C37.455 27.7895 37.4925 27.8745 37.4925 27.9745C37.4925 28.0845 37.4525 28.1695 37.3725 28.2295C37.2175 28.3545 37.0425 28.4845 36.8475 28.6195C36.6525 28.7495 36.465 28.872 36.285 28.987L35.94 29.212C35.415 29.552 35.1325 29.7345 35.0925 29.7595C35.0175 29.8095 34.9375 29.862 34.8525 29.917C34.7675 29.967 34.6875 30.017 34.6125 30.067L35.055 30.457C35.44 30.792 35.695 31.012 35.82 31.117C36.07 31.332 36.285 31.512 36.465 31.657C36.645 31.797 36.89 31.982 37.2 32.212C37.295 32.287 37.3425 32.382 37.3425 32.497C37.3425 32.602 37.305 32.6895 37.23 32.7595C37.16 32.8245 37.075 32.857 36.975 32.857C36.885 32.857 36.81 32.8345 36.75 32.7895L36.6075 32.677C36.0575 32.232 35.6575 31.8995 35.4075 31.6795C34.9825 31.3195 34.6225 30.9945 34.3275 30.7045L34.32 31.3645C34.31 31.8445 34.305 32.2145 34.305 32.4745C34.305 32.5895 34.27 32.682 34.2 32.752C34.13 32.817 34.0375 32.8495 33.9225 32.8495C33.7975 32.8495 33.705 32.8195 33.645 32.7595C33.585 32.6945 33.555 32.5945 33.555 32.4595C33.555 32.2445 33.56 31.892 33.57 31.402C33.585 30.997 33.5925 30.5495 33.5925 30.0595L33.585 28.9795C33.58 28.7595 33.5775 28.407 33.5775 27.922C33.5775 27.832 33.6125 27.7545 33.6825 27.6895C33.7525 27.6245 33.8425 27.592 33.9525 27.592C34.0675 27.592 34.1575 27.6245 34.2225 27.6895C34.2925 27.7545 34.3275 27.8395 34.3275 27.9445L34.335 29.4895C34.78 29.1895 35.1625 28.9245 35.4825 28.6945L35.7675 28.492C36.2075 28.187 36.58 27.9195 36.885 27.6895C36.96 27.6395 37.0375 27.6145 37.1175 27.6145ZM38.5402 28.7095C38.3852 28.7095 38.2577 28.6595 38.1577 28.5595C38.0577 28.4545 38.0077 28.3245 38.0077 28.1695C38.0077 28.0195 38.0577 27.8945 38.1577 27.7945C38.2627 27.6945 38.3952 27.6445 38.5552 27.6445C38.7152 27.6445 38.8427 27.692 38.9377 27.787C39.0377 27.882 39.0877 28.007 39.0877 28.162C39.0877 28.317 39.0352 28.447 38.9302 28.552C38.8302 28.657 38.7002 28.7095 38.5402 28.7095ZM38.4352 32.797C38.3202 32.797 38.2277 32.7695 38.1577 32.7145C38.0877 32.6595 38.0527 32.582 38.0527 32.482L38.1277 29.437C38.1277 29.337 38.1627 29.2595 38.2327 29.2045C38.3027 29.1445 38.3927 29.1145 38.5027 29.1145C38.6127 29.1145 38.7027 29.1445 38.7727 29.2045C38.8477 29.2645 38.8852 29.3445 38.8852 29.4445L38.8102 32.4895C38.8052 32.5895 38.7677 32.667 38.6977 32.722C38.6327 32.772 38.5452 32.797 38.4352 32.797ZM41.6005 32.887C41.2355 32.887 40.903 32.8145 40.603 32.6695C40.308 32.5195 40.073 32.2995 39.898 32.0095C39.728 31.7145 39.643 31.357 39.643 30.937C39.643 30.547 39.723 30.207 39.883 29.917C40.043 29.627 40.2705 29.4045 40.5655 29.2495C40.8605 29.0945 41.2055 29.017 41.6005 29.017C41.8555 29.017 42.078 29.052 42.268 29.122C42.458 29.192 42.613 29.282 42.733 29.392C42.763 28.187 42.8005 27.272 42.8455 26.647C42.8555 26.562 42.893 26.492 42.958 26.437C43.028 26.382 43.113 26.3545 43.213 26.3545C43.328 26.3545 43.4205 26.3845 43.4905 26.4445C43.5655 26.5045 43.6005 26.582 43.5955 26.677C43.5605 27.007 43.528 27.612 43.498 28.492C43.473 29.372 43.4605 30.157 43.4605 30.847C43.4605 31.512 43.4755 31.9045 43.5055 32.0245C43.5605 32.2295 43.6355 32.357 43.7305 32.407C43.7505 32.417 43.7605 32.452 43.7605 32.512C43.7605 32.602 43.718 32.6845 43.633 32.7595C43.553 32.8345 43.463 32.872 43.363 32.872C43.278 32.872 43.2105 32.852 43.1605 32.812C42.9855 32.712 42.868 32.537 42.808 32.287C42.683 32.472 42.5155 32.6195 42.3055 32.7295C42.0955 32.8345 41.8605 32.887 41.6005 32.887ZM41.593 32.2645C41.783 32.2645 41.963 32.2195 42.133 32.1295C42.308 32.0395 42.448 31.922 42.553 31.777C42.658 31.627 42.7105 31.4695 42.7105 31.3045C42.7105 31.0745 42.713 30.8945 42.718 30.7645L42.7255 30.1645C42.6505 30.0345 42.508 29.9145 42.298 29.8045C42.093 29.6895 41.868 29.632 41.623 29.632C41.243 29.632 40.9405 29.7495 40.7155 29.9845C40.4955 30.2195 40.3855 30.5445 40.3855 30.9595C40.3855 31.2445 40.443 31.487 40.558 31.687C40.678 31.882 40.828 32.027 41.008 32.122C41.193 32.217 41.388 32.2645 41.593 32.2645ZM45.4665 32.887C45.1215 32.887 44.824 32.8045 44.574 32.6395C44.324 32.4745 44.1365 32.2595 44.0115 31.9945C43.9765 31.9245 43.959 31.8695 43.959 31.8295C43.964 31.7445 44.0115 31.6695 44.1015 31.6045C44.1915 31.5345 44.2815 31.5045 44.3715 31.5145C44.4215 31.5245 44.459 31.5445 44.484 31.5745C44.514 31.5995 44.554 31.6445 44.604 31.7095C44.739 31.8945 44.8665 32.037 44.9865 32.137C45.1115 32.232 45.274 32.2795 45.474 32.2795C45.659 32.2795 45.814 32.2345 45.939 32.1445C46.064 32.0545 46.1265 31.942 46.1265 31.807C46.1265 31.662 46.0615 31.552 45.9315 31.477C45.8015 31.397 45.5965 31.307 45.3165 31.207C45.0565 31.122 44.844 31.0395 44.679 30.9595C44.514 30.8745 44.3715 30.7595 44.2515 30.6145C44.1365 30.4645 44.079 30.2745 44.079 30.0445C44.079 29.8345 44.1365 29.6445 44.2515 29.4745C44.3715 29.2995 44.5365 29.1645 44.7465 29.0695C44.9565 28.9695 45.194 28.9195 45.459 28.9195C45.729 28.9195 45.9665 28.972 46.1715 29.077C46.3765 29.177 46.534 29.312 46.644 29.482C46.754 29.652 46.809 29.837 46.809 30.037C46.809 30.152 46.7815 30.237 46.7265 30.292C46.6765 30.342 46.5915 30.367 46.4715 30.367C46.3515 30.367 46.2715 30.347 46.2315 30.307C46.1915 30.262 46.169 30.2045 46.164 30.1345C46.144 29.9395 46.074 29.792 45.954 29.692C45.839 29.587 45.674 29.5345 45.459 29.5345C45.234 29.5345 45.069 29.587 44.964 29.692C44.864 29.792 44.814 29.9045 44.814 30.0295C44.814 30.1795 44.879 30.2945 45.009 30.3745C45.144 30.4545 45.3565 30.5445 45.6465 30.6445C45.9065 30.7345 46.1165 30.8195 46.2765 30.8995C46.4415 30.9795 46.5815 31.092 46.6965 31.237C46.8115 31.377 46.869 31.5595 46.869 31.7845C46.869 32.0245 46.8015 32.227 46.6665 32.392C46.5365 32.557 46.364 32.682 46.149 32.767C45.934 32.847 45.7065 32.887 45.4665 32.887ZM53.8029 30.127C53.9029 30.127 53.9854 30.1545 54.0504 30.2095C54.1204 30.2645 54.1554 30.352 54.1554 30.472C54.1554 30.587 54.1204 30.672 54.0504 30.727C53.9854 30.782 53.9029 30.8095 53.8029 30.8095H53.7054L53.7504 32.4895C53.7554 32.5995 53.7254 32.687 53.6604 32.752C53.5954 32.817 53.5029 32.8495 53.3829 32.8495C53.2679 32.8495 53.1754 32.8195 53.1054 32.7595C53.0404 32.6995 53.0054 32.617 53.0004 32.512L52.9479 30.7945L50.6679 30.757L50.5179 32.617C50.4979 32.797 50.3729 32.887 50.1429 32.887C49.8729 32.887 49.7479 32.7795 49.7679 32.5645L49.9104 30.742H49.7979C49.7079 30.742 49.6304 30.712 49.5654 30.652C49.5004 30.592 49.4679 30.5095 49.4679 30.4045C49.4679 30.2945 49.5004 30.212 49.5654 30.157C49.6304 30.097 49.7154 30.067 49.8204 30.067H49.9629L50.1504 27.7495C50.1554 27.6495 50.1929 27.572 50.2629 27.517C50.3379 27.457 50.4304 27.427 50.5404 27.427C50.6704 27.427 50.7654 27.462 50.8254 27.532C50.8854 27.602 50.9104 27.692 50.9004 27.802L50.7204 30.082L52.9254 30.112L52.8579 27.787C52.8579 27.677 52.8904 27.5895 52.9554 27.5245C53.0204 27.4595 53.1129 27.427 53.2329 27.427C53.3479 27.427 53.4379 27.4595 53.5029 27.5245C53.5729 27.5845 53.6104 27.662 53.6154 27.757L53.6829 30.127H53.8029ZM56.5765 32.887C56.1515 32.887 55.7865 32.7995 55.4815 32.6245C55.1815 32.4495 54.954 32.2145 54.799 31.9195C54.649 31.6245 54.574 31.2995 54.574 30.9445C54.574 30.5795 54.6565 30.2495 54.8215 29.9545C54.9865 29.6545 55.219 29.4195 55.519 29.2495C55.819 29.0745 56.1615 28.987 56.5465 28.987C56.8865 28.987 57.1915 29.057 57.4615 29.197C57.7365 29.332 57.9515 29.5245 58.1065 29.7745C58.2615 30.0245 58.339 30.3095 58.339 30.6295C58.339 30.7995 58.314 30.922 58.264 30.997C58.214 31.067 58.1115 31.1045 57.9565 31.1095L55.249 31.147C55.249 31.312 55.3015 31.482 55.4065 31.657C55.5115 31.832 55.6615 31.9795 55.8565 32.0995C56.0565 32.2145 56.289 32.272 56.554 32.272C56.744 32.272 56.904 32.247 57.034 32.197C57.169 32.142 57.2765 32.0795 57.3565 32.0095C57.4365 31.9345 57.5315 31.837 57.6415 31.717C57.6965 31.662 57.7665 31.6345 57.8515 31.6345C57.9315 31.6345 58.0065 31.667 58.0765 31.732C58.1515 31.792 58.189 31.862 58.189 31.942C58.189 32.007 58.1665 32.0695 58.1215 32.1295C57.9815 32.3295 57.794 32.507 57.559 32.662C57.324 32.812 56.9965 32.887 56.5765 32.887ZM57.634 30.577C57.664 30.577 57.684 30.5695 57.694 30.5545C57.709 30.5345 57.7165 30.507 57.7165 30.472C57.7165 30.207 57.604 29.992 57.379 29.827C57.159 29.657 56.8815 29.572 56.5465 29.572C56.2915 29.572 56.064 29.632 55.864 29.752C55.669 29.872 55.5165 30.017 55.4065 30.187C55.3015 30.352 55.249 30.497 55.249 30.622L57.634 30.577ZM62.3814 32.242C62.4564 32.252 62.5139 32.277 62.5539 32.317C62.5989 32.357 62.6214 32.4245 62.6214 32.5195C62.6214 32.6095 62.5989 32.6845 62.5539 32.7445C62.5089 32.8045 62.4464 32.8345 62.3664 32.8345C62.1614 32.8345 62.0064 32.8045 61.9014 32.7445C61.8014 32.6845 61.7089 32.572 61.6239 32.407C61.4139 32.747 61.0239 32.917 60.4539 32.917C59.8739 32.917 59.4464 32.742 59.1714 32.392C58.8964 32.037 58.7589 31.597 58.7589 31.072C58.7589 30.722 58.8289 30.3995 58.9689 30.1045C59.1089 29.8095 59.3139 29.5745 59.5839 29.3995C59.8539 29.2245 60.1689 29.137 60.5289 29.137C60.7589 29.137 60.9614 29.182 61.1364 29.272C61.3164 29.362 61.4514 29.4845 61.5414 29.6395L61.5639 29.452C61.5839 29.272 61.6914 29.182 61.8864 29.182C62.0164 29.182 62.1089 29.212 62.1639 29.272C62.2189 29.327 62.2414 29.397 62.2314 29.482C62.1814 29.857 62.1514 30.1395 62.1414 30.3295C62.1264 30.5095 62.1189 30.7445 62.1189 31.0345V31.5295C62.1189 31.7895 62.1314 31.9695 62.1564 32.0695C62.1864 32.1695 62.2614 32.227 62.3814 32.242ZM61.3839 31.5295C61.3889 31.3045 61.3914 30.997 61.3914 30.607C61.3914 30.402 61.3464 30.2345 61.2564 30.1045C61.1714 29.9745 61.0639 29.8795 60.9339 29.8195C60.8089 29.7595 60.6814 29.7295 60.5514 29.7295C60.3264 29.7295 60.1339 29.797 59.9739 29.932C59.8189 30.062 59.7014 30.2295 59.6214 30.4345C59.5464 30.6395 59.5089 30.852 59.5089 31.072C59.5089 31.407 59.5864 31.6995 59.7414 31.9495C59.9014 32.1945 60.1489 32.317 60.4839 32.317C60.7489 32.317 60.9639 32.2495 61.1289 32.1145C61.2939 31.9795 61.3789 31.7845 61.3839 31.5295ZM63.5573 32.7745C63.4473 32.7745 63.3598 32.7445 63.2948 32.6845C63.2298 32.6245 63.1973 32.547 63.1973 32.452L63.1523 27.232C63.1523 27.132 63.1873 27.052 63.2573 26.992C63.3323 26.932 63.4248 26.902 63.5348 26.902C63.6448 26.902 63.7323 26.932 63.7973 26.992C63.8623 27.052 63.8948 27.1295 63.8948 27.2245L63.9323 32.4445C63.9323 32.5445 63.8973 32.6245 63.8273 32.6845C63.7573 32.7445 63.6673 32.7745 63.5573 32.7745ZM66.8011 31.5295C66.9161 31.5295 66.9986 31.5545 67.0486 31.6045C67.0986 31.6545 67.1236 31.7395 67.1236 31.8595C67.1236 32.1445 67.0311 32.382 66.8461 32.572C66.6611 32.757 66.4261 32.8495 66.1411 32.8495C65.7461 32.8495 65.4611 32.682 65.2861 32.347C65.1111 32.007 65.0236 31.477 65.0236 30.757C65.0236 30.502 65.0311 30.247 65.0461 29.992L64.6861 29.9695C64.4911 29.9595 64.3936 29.857 64.3936 29.662C64.3936 29.562 64.4186 29.4895 64.4686 29.4445C64.5236 29.3945 64.6111 29.372 64.7311 29.377L65.0986 29.3995C65.1286 29.0845 65.1861 28.647 65.2711 28.087C65.3011 27.907 65.4236 27.817 65.6386 27.817C65.7636 27.817 65.8586 27.8495 65.9236 27.9145C65.9936 27.9795 66.0236 28.057 66.0136 28.147C65.9436 28.582 65.8836 29.012 65.8336 29.437C66.1036 29.447 66.2811 29.452 66.3661 29.452C66.4611 29.452 66.5311 29.4745 66.5761 29.5195C66.6211 29.5595 66.6436 29.6245 66.6436 29.7145C66.6436 29.8245 66.6186 29.902 66.5686 29.947C66.5236 29.987 66.4386 30.0095 66.3136 30.0145H65.7811C65.7661 30.2545 65.7586 30.502 65.7586 30.757C65.7586 31.262 65.7911 31.637 65.8561 31.882C65.9211 32.122 66.0361 32.242 66.2011 32.242C66.3911 32.242 66.4936 32.0945 66.5086 31.7995C66.5086 31.7095 66.5286 31.642 66.5686 31.597C66.6136 31.552 66.6911 31.5295 66.8011 31.5295ZM70.8516 29.992C70.9166 30.267 70.9616 30.6145 70.9866 31.0345C71.0166 31.4495 71.0316 31.9545 71.0316 32.5495C71.0316 32.6295 70.9941 32.697 70.9191 32.752C70.8491 32.807 70.7616 32.8345 70.6566 32.8345C70.5516 32.8345 70.4641 32.807 70.3941 32.752C70.3241 32.697 70.2891 32.617 70.2891 32.512C70.2891 31.252 70.2391 30.4445 70.1391 30.0895C70.0891 29.9095 70.0141 29.782 69.9141 29.707C69.8141 29.627 69.6866 29.587 69.5316 29.587C69.1866 29.587 68.9216 29.727 68.7366 30.007C68.5566 30.282 68.4666 30.6095 68.4666 30.9895V32.557C68.4666 32.637 68.4316 32.702 68.3616 32.752C68.2916 32.802 68.2041 32.827 68.0991 32.827C67.9891 32.827 67.8991 32.802 67.8291 32.752C67.7591 32.697 67.7241 32.6295 67.7241 32.5495C67.7241 31.5395 67.7366 30.572 67.7616 29.647C67.7816 28.932 67.8216 28.142 67.8816 27.277C67.8966 27.062 68.0191 26.9545 68.2491 26.9545C68.3591 26.9545 68.4441 26.9795 68.5041 27.0295C68.5691 27.0745 68.5991 27.142 68.5941 27.232L68.5191 28.672L68.4741 29.497C68.5941 29.342 68.7516 29.2145 68.9466 29.1145C69.1416 29.0145 69.3766 28.9645 69.6516 28.9645C69.9816 28.9645 70.2416 29.0495 70.4316 29.2195C70.6216 29.3845 70.7616 29.642 70.8516 29.992ZM77.8765 32.1295C78.0115 32.1945 78.079 32.277 78.079 32.377C78.079 32.462 78.049 32.537 77.989 32.602C77.929 32.667 77.854 32.6995 77.764 32.6995C77.699 32.6995 77.6215 32.677 77.5315 32.632C77.2765 32.517 77.0315 32.397 76.7965 32.272C76.5915 32.422 76.364 32.5395 76.114 32.6245C75.864 32.7095 75.609 32.752 75.349 32.752C75.004 32.752 74.704 32.6795 74.449 32.5345C74.194 32.3895 73.999 32.202 73.864 31.972C73.729 31.742 73.6615 31.502 73.6615 31.252C73.6615 31.002 73.724 30.7545 73.849 30.5095C73.974 30.2595 74.1365 30.047 74.3365 29.872C74.1515 29.762 74.004 29.6145 73.894 29.4295C73.789 29.2445 73.7365 29.042 73.7365 28.822C73.7365 28.597 73.794 28.3945 73.909 28.2145C74.029 28.0345 74.189 27.8945 74.389 27.7945C74.594 27.6945 74.819 27.6445 75.064 27.6445C75.319 27.6445 75.549 27.6945 75.754 27.7945C75.959 27.8945 76.119 28.0395 76.234 28.2295C76.354 28.4195 76.414 28.6395 76.414 28.8895C76.414 29.1845 76.3265 29.417 76.1515 29.587C75.9765 29.752 75.7415 29.8795 75.4465 29.9695C75.8315 30.6795 76.219 31.182 76.609 31.477L76.6465 31.507C76.7815 31.307 76.849 31.1045 76.849 30.8995C76.849 30.8145 76.8365 30.7195 76.8115 30.6145C76.7915 30.5095 76.769 30.4345 76.744 30.3895C76.714 30.3295 76.699 30.287 76.699 30.262C76.699 30.197 76.7365 30.137 76.8115 30.082C76.8865 30.027 76.9665 29.9995 77.0515 29.9995C77.1965 29.9995 77.304 30.057 77.374 30.172C77.424 30.247 77.464 30.3545 77.494 30.4945C77.529 30.6345 77.5465 30.772 77.5465 30.907C77.5465 31.232 77.4415 31.5395 77.2315 31.8295C77.2915 31.8595 77.4015 31.9095 77.5615 31.9795C77.5915 31.9945 77.6965 32.0445 77.8765 32.1295ZM75.079 28.1845C74.909 28.1845 74.7565 28.2445 74.6215 28.3645C74.4865 28.4795 74.419 28.642 74.419 28.852C74.419 29.027 74.469 29.177 74.569 29.302C74.674 29.422 74.8315 29.4895 75.0415 29.5045C75.2615 29.4695 75.434 29.4095 75.559 29.3245C75.689 29.2395 75.754 29.0895 75.754 28.8745C75.754 28.6545 75.6865 28.4845 75.5515 28.3645C75.4165 28.2445 75.259 28.1845 75.079 28.1845ZM75.349 32.2045C75.664 32.2045 75.959 32.107 76.234 31.912L76.1365 31.837C75.8915 31.642 75.664 31.402 75.454 31.117C75.244 30.832 75.0715 30.507 74.9365 30.142C74.7265 30.257 74.574 30.422 74.479 30.637C74.389 30.852 74.344 31.0545 74.344 31.2445C74.344 31.5045 74.4315 31.7295 74.6065 31.9195C74.7865 32.1095 75.034 32.2045 75.349 32.2045ZM82.3074 32.8345C82.1874 32.8345 82.0799 32.8045 81.9849 32.7445C81.8899 32.6845 81.8299 32.6045 81.8049 32.5045C81.7649 32.3695 81.6674 31.977 81.5124 31.327C81.4074 30.847 81.2999 30.3995 81.1899 29.9845C81.0199 29.3195 80.8399 28.6645 80.6499 28.0195C80.6399 27.9695 80.6349 27.927 80.6349 27.892C80.6349 27.792 80.6724 27.712 80.7474 27.652C80.8224 27.587 80.9224 27.5545 81.0474 27.5545C81.1374 27.5545 81.2099 27.5745 81.2649 27.6145C81.3199 27.6545 81.3574 27.7195 81.3774 27.8095L81.5049 28.2745C81.6599 28.8295 81.7924 29.342 81.9024 29.812L82.0824 30.5995C82.1724 30.9945 82.2399 31.2845 82.2849 31.4695C82.3299 31.6545 82.3649 31.747 82.3899 31.747C82.4099 31.747 82.4374 31.707 82.4724 31.627C82.5124 31.542 82.5474 31.4595 82.5774 31.3795C82.6074 31.2995 82.6299 31.242 82.6449 31.207L82.8474 30.7045C83.0124 30.3095 83.1324 30.042 83.2074 29.902C83.2874 29.757 83.3774 29.6845 83.4774 29.6845C83.5774 29.6845 83.6674 29.7495 83.7474 29.8795C83.8324 30.0095 83.9599 30.2545 84.1299 30.6145L84.2049 30.772L84.4149 31.2145C84.4799 31.3595 84.5374 31.4845 84.5874 31.5895C84.6424 31.6895 84.6799 31.7395 84.6999 31.7395C84.7149 31.7395 84.7449 31.6295 84.7899 31.4095C84.8399 31.1895 84.8924 30.942 84.9474 30.667L85.1124 29.827C85.2574 29.132 85.4074 28.4595 85.5624 27.8095C85.5824 27.7295 85.6224 27.6695 85.6824 27.6295C85.7424 27.5845 85.8199 27.562 85.9149 27.562C86.0299 27.562 86.1249 27.5945 86.1999 27.6595C86.2749 27.7195 86.3124 27.802 86.3124 27.907C86.3124 27.947 86.3099 27.9795 86.3049 28.0045C86.1999 28.4045 86.0424 29.062 85.8324 29.977C85.7574 30.302 85.6649 30.7345 85.5549 31.2745C85.4599 31.7495 85.3774 32.1445 85.3074 32.4595C85.2624 32.6995 85.1024 32.8195 84.8274 32.8195C84.6824 32.8195 84.5474 32.752 84.4224 32.617C84.3024 32.482 84.1549 32.2395 83.9799 31.8895C83.8999 31.7245 83.8174 31.547 83.7324 31.357C83.6124 31.067 83.5399 30.922 83.5149 30.922C83.4999 30.922 83.4774 30.9545 83.4474 31.0195C83.4224 31.0795 83.3949 31.1445 83.3649 31.2145C83.3399 31.2795 83.3174 31.337 83.2974 31.387C83.2074 31.622 83.1299 31.8095 83.0649 31.9495C82.9099 32.2945 82.7774 32.5295 82.6674 32.6545C82.5624 32.7745 82.4424 32.8345 82.3074 32.8345ZM88.726 32.887C88.301 32.887 87.936 32.7995 87.631 32.6245C87.331 32.4495 87.1035 32.2145 86.9485 31.9195C86.7985 31.6245 86.7235 31.2995 86.7235 30.9445C86.7235 30.5795 86.806 30.2495 86.971 29.9545C87.136 29.6545 87.3685 29.4195 87.6685 29.2495C87.9685 29.0745 88.311 28.987 88.696 28.987C89.036 28.987 89.341 29.057 89.611 29.197C89.886 29.332 90.101 29.5245 90.256 29.7745C90.411 30.0245 90.4885 30.3095 90.4885 30.6295C90.4885 30.7995 90.4635 30.922 90.4135 30.997C90.3635 31.067 90.261 31.1045 90.106 31.1095L87.3985 31.147C87.3985 31.312 87.451 31.482 87.556 31.657C87.661 31.832 87.811 31.9795 88.006 32.0995C88.206 32.2145 88.4385 32.272 88.7035 32.272C88.8935 32.272 89.0535 32.247 89.1835 32.197C89.3185 32.142 89.426 32.0795 89.506 32.0095C89.586 31.9345 89.681 31.837 89.791 31.717C89.846 31.662 89.916 31.6345 90.001 31.6345C90.081 31.6345 90.156 31.667 90.226 31.732C90.301 31.792 90.3385 31.862 90.3385 31.942C90.3385 32.007 90.316 32.0695 90.271 32.1295C90.131 32.3295 89.9435 32.507 89.7085 32.662C89.4735 32.812 89.146 32.887 88.726 32.887ZM89.7835 30.577C89.8135 30.577 89.8335 30.5695 89.8435 30.5545C89.8585 30.5345 89.866 30.507 89.866 30.472C89.866 30.207 89.7535 29.992 89.5285 29.827C89.3085 29.657 89.031 29.572 88.696 29.572C88.441 29.572 88.2135 29.632 88.0135 29.752C87.8185 29.872 87.666 30.017 87.556 30.187C87.451 30.352 87.3985 30.497 87.3985 30.622L89.7835 30.577ZM91.456 32.7745C91.346 32.7745 91.2585 32.7445 91.1935 32.6845C91.1285 32.6245 91.096 32.547 91.096 32.452L91.051 27.232C91.051 27.132 91.086 27.052 91.156 26.992C91.231 26.932 91.3235 26.902 91.4335 26.902C91.5435 26.902 91.631 26.932 91.696 26.992C91.761 27.052 91.7935 27.1295 91.7935 27.2245L91.831 32.4445C91.831 32.5445 91.796 32.6245 91.726 32.6845C91.656 32.7445 91.566 32.7745 91.456 32.7745ZM92.9822 32.7745C92.8722 32.7745 92.7847 32.7445 92.7197 32.6845C92.6547 32.6245 92.6222 32.547 92.6222 32.452L92.5772 27.232C92.5772 27.132 92.6122 27.052 92.6822 26.992C92.7572 26.932 92.8497 26.902 92.9597 26.902C93.0697 26.902 93.1572 26.932 93.2222 26.992C93.2872 27.052 93.3197 27.1295 93.3197 27.2245L93.3572 32.4445C93.3572 32.5445 93.3222 32.6245 93.2522 32.6845C93.1822 32.7445 93.0922 32.7745 92.9822 32.7745ZM96.046 29.0245C96.406 29.0245 96.7285 29.1045 97.0135 29.2645C97.3035 29.4195 97.5285 29.6445 97.6885 29.9395C97.8535 30.2295 97.936 30.5695 97.936 30.9595C97.936 31.3745 97.846 31.7245 97.666 32.0095C97.486 32.2945 97.251 32.507 96.961 32.647C96.671 32.787 96.3585 32.857 96.0235 32.857C95.7385 32.857 95.4685 32.797 95.2135 32.677C94.9635 32.552 94.7935 32.422 94.7035 32.287C94.6635 32.387 94.601 32.4795 94.516 32.5645C94.436 32.6445 94.3635 32.6995 94.2985 32.7295C94.2485 32.7545 94.1935 32.767 94.1335 32.767C94.0435 32.767 93.966 32.7345 93.901 32.6695C93.836 32.5995 93.8035 32.5245 93.8035 32.4445C93.8035 32.3695 93.8335 32.3045 93.8935 32.2495C93.9085 32.2345 93.9385 32.2095 93.9835 32.1745C94.0335 32.1345 94.071 32.082 94.096 32.017C94.126 31.927 94.141 31.7795 94.141 31.5745L94.126 30.847C94.126 30.727 94.121 30.437 94.111 29.977C94.101 29.347 94.096 28.9295 94.096 28.7245C94.086 27.8045 94.071 27.102 94.051 26.617C94.046 26.522 94.0785 26.447 94.1485 26.392C94.2235 26.337 94.316 26.3095 94.426 26.3095C94.526 26.3095 94.6085 26.3345 94.6735 26.3845C94.7435 26.4345 94.781 26.502 94.786 26.587C94.821 27.247 94.841 27.957 94.846 28.717L94.861 29.4745C94.971 29.3445 95.126 29.237 95.326 29.152C95.526 29.067 95.766 29.0245 96.046 29.0245ZM96.016 32.2645C96.216 32.2645 96.4035 32.217 96.5785 32.122C96.7585 32.027 96.9035 31.882 97.0135 31.687C97.1285 31.487 97.186 31.2395 97.186 30.9445C97.186 30.5245 97.076 30.1995 96.856 29.9695C96.636 29.7345 96.346 29.617 95.986 29.617C95.736 29.617 95.511 29.6795 95.311 29.8045C95.116 29.9295 94.971 30.067 94.876 30.217V30.7795C94.876 31.0095 94.8835 31.237 94.8985 31.462C94.9085 31.602 94.966 31.7345 95.071 31.8595C95.181 31.9795 95.3185 32.077 95.4835 32.152C95.6535 32.227 95.831 32.2645 96.016 32.2645ZM100.339 32.887C99.9139 32.887 99.5489 32.7995 99.2439 32.6245C98.9439 32.4495 98.7164 32.2145 98.5614 31.9195C98.4114 31.6245 98.3364 31.2995 98.3364 30.9445C98.3364 30.5795 98.4189 30.2495 98.5839 29.9545C98.7489 29.6545 98.9814 29.4195 99.2814 29.2495C99.5814 29.0745 99.9239 28.987 100.309 28.987C100.649 28.987 100.954 29.057 101.224 29.197C101.499 29.332 101.714 29.5245 101.869 29.7745C102.024 30.0245 102.101 30.3095 102.101 30.6295C102.101 30.7995 102.076 30.922 102.026 30.997C101.976 31.067 101.874 31.1045 101.719 31.1095L99.0114 31.147C99.0114 31.312 99.0639 31.482 99.1689 31.657C99.2739 31.832 99.4239 31.9795 99.6189 32.0995C99.8189 32.2145 100.051 32.272 100.316 32.272C100.506 32.272 100.666 32.247 100.796 32.197C100.931 32.142 101.039 32.0795 101.119 32.0095C101.199 31.9345 101.294 31.837 101.404 31.717C101.459 31.662 101.529 31.6345 101.614 31.6345C101.694 31.6345 101.769 31.667 101.839 31.732C101.914 31.792 101.951 31.862 101.951 31.942C101.951 32.007 101.929 32.0695 101.884 32.1295C101.744 32.3295 101.556 32.507 101.321 32.662C101.086 32.812 100.759 32.887 100.339 32.887ZM101.396 30.577C101.426 30.577 101.446 30.5695 101.456 30.5545C101.471 30.5345 101.479 30.507 101.479 30.472C101.479 30.207 101.366 29.992 101.141 29.827C100.921 29.657 100.644 29.572 100.309 29.572C100.054 29.572 99.8264 29.632 99.6264 29.752C99.4314 29.872 99.2789 30.017 99.1689 30.187C99.0639 30.352 99.0114 30.497 99.0114 30.622L101.396 30.577ZM103.391 28.7095C103.236 28.7095 103.109 28.6595 103.009 28.5595C102.909 28.4545 102.859 28.3245 102.859 28.1695C102.859 28.0195 102.909 27.8945 103.009 27.7945C103.114 27.6945 103.246 27.6445 103.406 27.6445C103.566 27.6445 103.694 27.692 103.789 27.787C103.889 27.882 103.939 28.007 103.939 28.162C103.939 28.317 103.886 28.447 103.781 28.552C103.681 28.657 103.551 28.7095 103.391 28.7095ZM103.286 32.797C103.171 32.797 103.079 32.7695 103.009 32.7145C102.939 32.6595 102.904 32.582 102.904 32.482L102.979 29.437C102.979 29.337 103.014 29.2595 103.084 29.2045C103.154 29.1445 103.244 29.1145 103.354 29.1145C103.464 29.1145 103.554 29.1445 103.624 29.2045C103.699 29.2645 103.736 29.3445 103.736 29.4445L103.661 32.4895C103.656 32.5895 103.619 32.667 103.549 32.722C103.484 32.772 103.396 32.797 103.286 32.797ZM106.549 29.017C106.974 29.017 107.297 29.1695 107.517 29.4745C107.742 29.7745 107.854 30.2245 107.854 30.8245V32.557C107.854 32.652 107.822 32.7245 107.757 32.7745C107.692 32.8195 107.604 32.842 107.494 32.842C107.384 32.842 107.292 32.8195 107.217 32.7745C107.142 32.7295 107.104 32.662 107.104 32.572L107.112 30.817C107.112 30.402 107.064 30.102 106.969 29.917C106.879 29.727 106.717 29.632 106.482 29.632C106.032 29.632 105.739 29.992 105.604 30.712C105.559 30.932 105.537 31.197 105.537 31.507L105.544 32.572C105.544 32.662 105.512 32.732 105.447 32.782C105.382 32.827 105.294 32.8495 105.184 32.8495C105.064 32.8495 104.969 32.8245 104.899 32.7745C104.834 32.7195 104.802 32.652 104.802 32.572C104.802 32.072 104.792 31.492 104.772 30.832C104.762 30.442 104.757 30.172 104.757 30.022C104.752 29.912 104.734 29.827 104.704 29.767C104.679 29.702 104.629 29.607 104.554 29.482C104.534 29.432 104.524 29.3895 104.524 29.3545C104.524 29.2795 104.567 29.2095 104.652 29.1445C104.737 29.0795 104.819 29.047 104.899 29.047C104.984 29.047 105.067 29.102 105.147 29.212C105.282 29.407 105.349 29.5845 105.349 29.7445V29.8345C105.439 29.5995 105.579 29.4045 105.769 29.2495C105.964 29.0945 106.224 29.017 106.549 29.017ZM111.876 31.7695C111.916 32.0345 111.943 32.242 111.958 32.392C111.978 32.542 111.988 32.687 111.988 32.827C111.988 33.197 111.911 33.5245 111.756 33.8095C111.606 34.0945 111.391 34.317 111.111 34.477C110.836 34.637 110.516 34.717 110.151 34.717C109.871 34.717 109.613 34.662 109.378 34.552C109.143 34.442 108.956 34.292 108.816 34.102C108.676 33.912 108.606 33.707 108.606 33.487C108.606 33.297 108.723 33.202 108.958 33.202C109.108 33.202 109.198 33.2745 109.228 33.4195C109.278 33.6495 109.381 33.8195 109.536 33.9295C109.696 34.0445 109.896 34.102 110.136 34.102C110.496 34.102 110.771 33.992 110.961 33.772C111.156 33.552 111.253 33.232 111.253 32.812C111.253 32.677 111.241 32.527 111.216 32.362C111.101 32.502 110.943 32.617 110.743 32.707C110.548 32.792 110.323 32.8345 110.068 32.8345C109.708 32.8345 109.388 32.752 109.108 32.587C108.833 32.417 108.621 32.1895 108.471 31.9045C108.321 31.6195 108.246 31.3095 108.246 30.9745C108.246 30.6295 108.318 30.3095 108.463 30.0145C108.613 29.7195 108.823 29.487 109.093 29.317C109.368 29.142 109.681 29.0545 110.031 29.0545C110.421 29.0545 110.728 29.152 110.953 29.347C110.973 29.287 111.018 29.177 111.088 29.017C111.138 28.917 111.221 28.867 111.336 28.867C111.431 28.867 111.521 28.8945 111.606 28.9495C111.696 28.9995 111.743 29.0645 111.748 29.1445C111.748 29.1795 111.746 29.2045 111.741 29.2195C111.656 29.4895 111.606 29.6595 111.591 29.7295L111.846 31.5595L111.876 31.7695ZM110.106 32.2045C110.326 32.2045 110.538 32.1445 110.743 32.0245C110.953 31.9045 111.078 31.7745 111.118 31.6345C111.088 31.3495 111.031 30.957 110.946 30.457C110.941 30.407 110.921 30.2795 110.886 30.0745C110.841 29.9795 110.741 29.8895 110.586 29.8045C110.436 29.7195 110.266 29.677 110.076 29.677C109.866 29.677 109.678 29.7345 109.513 29.8495C109.348 29.9595 109.218 30.1145 109.123 30.3145C109.033 30.5095 108.988 30.727 108.988 30.967C108.988 31.312 109.083 31.6045 109.273 31.8445C109.468 32.0845 109.746 32.2045 110.106 32.2045Z" fill="#252948"/>
<path d="M36.25 21.66C36.25 21.79 35.8427 21.855 35.028 21.855L34.3 21.816C33.8667 21.7813 33.65 21.7206 33.65 21.634V12.911C33.65 12.7636 34.0833 12.69 34.95 12.69C35.8167 12.69 36.25 12.7636 36.25 12.911V16.239L37.836 12.911C37.8967 12.7896 38.2433 12.729 38.876 12.729C40.0287 12.729 40.6353 12.8286 40.696 13.028C40.696 13.0453 40.6917 13.0626 40.683 13.08L38.421 17.162L41.047 20.789C41.047 20.8063 40.9647 20.88 40.8 21.01C40.4013 21.3566 39.9333 21.6296 39.396 21.829C39.2313 21.8896 39.0667 21.92 38.902 21.92L38.59 21.894C38.3127 21.8246 38.096 21.647 37.94 21.361L36.458 18.527H36.25V21.66ZM48.7835 21.621C48.7835 21.7683 48.3459 21.842 47.4705 21.842C46.5952 21.842 46.1575 21.7683 46.1575 21.621V18.631H44.3375V21.621C44.3375 21.7683 43.8999 21.842 43.0245 21.842C42.1492 21.842 41.7115 21.7683 41.7115 21.621V13.002C41.7115 12.82 42.1492 12.729 43.0245 12.729C43.8999 12.729 44.3375 12.82 44.3375 13.002V16.057H46.1575V13.028C46.1575 12.9066 46.3742 12.82 46.8075 12.768C47.0329 12.7506 47.2539 12.742 47.4705 12.742L48.1335 12.768C48.5669 12.82 48.7835 12.9066 48.7835 13.028V21.621ZM56.1877 21.868C55.4337 21.868 55.0264 21.7466 54.9657 21.504L54.5367 19.827H52.4697L52.0927 21.439C52.0407 21.7076 51.6247 21.842 50.8447 21.842C50.4287 21.842 50.1211 21.8203 49.9217 21.777C49.7224 21.725 49.6227 21.686 49.6227 21.66L51.9237 12.859C51.9237 12.7896 52.5174 12.755 53.7047 12.755C54.8921 12.755 55.4857 12.7896 55.4857 12.859L57.7347 21.673C57.7347 21.7336 57.5354 21.7813 57.1367 21.816C56.7381 21.8506 56.4217 21.868 56.1877 21.868ZM52.7947 18.176H54.1597L53.5747 15.485H53.4967L52.7947 18.176ZM57.7623 12.872C57.7363 12.7766 58.1739 12.729 59.0753 12.729C60.0719 12.729 60.5833 12.8113 60.6093 12.976L61.2463 18.449L62.6243 12.911C62.6676 12.781 63.0056 12.716 63.6383 12.716C64.2709 12.716 64.6089 12.7766 64.6523 12.898L66.0043 18.475L66.7583 12.95C66.7756 12.8546 66.9749 12.7896 67.3563 12.755C67.7376 12.7203 68.0453 12.703 68.2793 12.703C69.1893 12.703 69.6313 12.7636 69.6053 12.885L68.0323 21.504C67.9976 21.634 67.7506 21.7293 67.2913 21.79C66.8319 21.8506 66.4593 21.881 66.1733 21.881C65.0986 21.881 64.5353 21.7596 64.4833 21.517L63.5993 17.942L62.6373 21.504C62.6026 21.66 62.2993 21.7726 61.7273 21.842C61.4326 21.868 61.1379 21.881 60.8433 21.881L60.0113 21.842C59.4393 21.7813 59.1359 21.673 59.1013 21.517L57.7623 12.872Z" fill="#252948"/>
<path d="M20.8594 17.6684C20.8594 24.7355 26.6683 29.6644 16.1575 29.6644C5.64683 29.6644 13.4892 25.088 13.4892 18.0209C13.4892 10.9538 5.64679 8.66793 16.1575 8.66793C26.6682 8.66793 20.8594 10.6013 20.8594 17.6684Z" fill="#F8F5E0"/>
<path fill-rule="evenodd" clip-rule="evenodd" d="M16.07 10.8257C15.8023 10.7983 15.465 10.6376 15.0459 10.4379C14.3298 10.0966 13.3749 9.64164 12.1206 9.54396C11.0325 9.45922 9.85551 9.65401 8.77785 9.83237C6.60319 10.1923 4.83285 10.4853 5.01265 8.27936C5.28154 4.98027 8.16164 2.51314 11.4455 2.76887C13.8876 2.95905 15.8652 4.60144 16.6081 6.78774C17.7375 5.06037 19.7659 3.96706 22.0066 4.10116C25.2946 4.29794 27.7946 7.06301 27.5906 10.2771C27.4754 12.0931 26.6832 11.5673 25.4228 10.7307C24.4524 10.0866 23.2045 9.25831 21.7742 9.17271C20.3589 9.088 18.9957 9.7444 17.9183 10.2632C17.1068 10.6539 16.4574 10.9666 16.07 10.8257Z" fill="#D03E65"/>
<path d="M15.6724 28.5448C15.9005 25.7472 16.8895 27.8517 19.6742 28.0685C22.4589 28.2854 25.9296 26.3433 25.7016 29.1409C25.4736 31.9385 23.0313 34.0306 20.2466 33.8137C17.4619 33.5968 15.4444 31.3424 15.6724 28.5448Z" fill="#D03E65"/>
<path d="M11.7587 28.4737C8.97061 28.3068 6.99948 24.8116 6.82649 27.5371C6.6535 30.2627 8.7735 32.6074 11.5616 32.7743C14.3498 32.9411 16.7484 30.9297 16.9213 28.2042C17.0943 25.4787 14.5469 28.6405 11.7587 28.4737Z" fill="#D03E65"/>
<path fill-rule="evenodd" clip-rule="evenodd" d="M17.9796 17.7032C17.9796 18.3976 18.2818 19.0214 18.7618 19.4504C19.1486 19.0326 19.3851 18.4736 19.3851 17.8593C19.3851 17.1649 19.0829 16.5411 18.6029 16.1121C18.2161 16.5299 17.9796 17.0889 17.9796 17.7032ZM16.331 17.8593C16.331 17.1649 16.0289 16.5411 15.5488 16.1122C15.162 16.5299 14.9256 17.0889 14.9256 17.7032C14.9256 18.3976 15.2278 19.0214 15.7078 19.4504C16.0946 19.0326 16.331 18.4736 16.331 17.8593Z" fill="#252948"/>
<path fill-rule="evenodd" clip-rule="evenodd" d="M16.1865 6.94796C15.8048 5.82422 15.891 4.5479 16.531 3.43935C17.1156 2.42693 18.0522 1.74456 19.097 1.45762C19.4787 2.58136 19.3924 3.85768 18.7524 4.96624C18.1679 5.97866 17.2312 6.66103 16.1865 6.94796Z" fill="#252948"/>
</svg>
