<svg width="40" height="40" viewBox="0 0 40 40" fill="none" xmlns="http://www.w3.org/2000/svg">
<path d="M13.9333 25.5502C13.5974 25.8323 13.3863 26.2355 13.3457 26.6723C13.3051 27.1091 13.4384 27.5443 13.7167 27.8835C13.8566 28.0523 14.0284 28.1918 14.2223 28.294C14.4162 28.3963 14.6284 28.4593 14.8467 28.4794C15.065 28.4995 15.2851 28.4764 15.4945 28.4113C15.7038 28.3462 15.8983 28.2405 16.0667 28.1002C17.1808 27.2019 18.5688 26.712 20 26.712C21.4312 26.712 22.8192 27.2019 23.9333 28.1002C24.1017 28.2405 24.2962 28.3462 24.5055 28.4113C24.7149 28.4764 24.935 28.4995 25.1533 28.4794C25.3716 28.4593 25.5838 28.3963 25.7777 28.294C25.9716 28.1918 26.1434 28.0523 26.2833 27.8835C26.5616 27.5443 26.6949 27.1091 26.6543 26.6723C26.6137 26.2355 26.4026 25.8323 26.0667 25.5502C24.3469 24.1678 22.2065 23.4142 20 23.4142C17.7935 23.4142 15.6531 24.1678 13.9333 25.5502ZM15 18.3335C15.3296 18.3335 15.6519 18.2357 15.926 18.0526C16.2 17.8695 16.4137 17.6092 16.5398 17.3046C16.6659 17.0001 16.699 16.665 16.6346 16.3417C16.5703 16.0184 16.4116 15.7214 16.1785 15.4883C15.9454 15.2552 15.6485 15.0965 15.3252 15.0322C15.0018 14.9679 14.6667 15.0009 14.3622 15.127C14.0577 15.2532 13.7974 15.4668 13.6142 15.7409C13.4311 16.015 13.3333 16.3372 13.3333 16.6668C13.3333 17.1089 13.5089 17.5328 13.8215 17.8453C14.134 18.1579 14.558 18.3335 15 18.3335ZM20 3.3335C16.7036 3.3335 13.4813 4.31098 10.7405 6.14234C7.99968 7.97369 5.86347 10.5767 4.60201 13.6221C3.34055 16.6675 3.01049 20.0187 3.65358 23.2517C4.29667 26.4847 5.88401 29.4544 8.21489 31.7853C10.5458 34.1162 13.5155 35.7035 16.7485 36.3466C19.9815 36.9897 23.3326 36.6596 26.3781 35.3982C29.4235 34.1367 32.0265 32.0005 33.8578 29.2597C35.6892 26.5188 36.6667 23.2965 36.6667 20.0002C36.6667 17.8115 36.2356 15.6442 35.398 13.6221C34.5604 11.6 33.3328 9.76269 31.7851 8.21505C30.2375 6.66741 28.4002 5.43975 26.3781 4.60217C24.356 3.76459 22.1887 3.3335 20 3.3335ZM20 33.3335C17.3629 33.3335 14.7851 32.5515 12.5924 31.0864C10.3997 29.6213 8.69078 27.539 7.68161 25.1026C6.67244 22.6663 6.40839 19.9854 6.92286 17.399C7.43733 14.8125 8.70721 12.4368 10.5719 10.5721C12.4366 8.70737 14.8124 7.4375 17.3988 6.92303C19.9852 6.40856 22.6661 6.6726 25.1024 7.68177C27.5388 8.69094 29.6212 10.3999 31.0863 12.5926C32.5513 14.7852 33.3333 17.3631 33.3333 20.0002C33.3333 23.5364 31.9286 26.9278 29.4281 29.4283C26.9276 31.9287 23.5362 33.3335 20 33.3335ZM25 15.0002C24.6704 15.0002 24.3481 15.0979 24.074 15.281C23.8 15.4642 23.5863 15.7245 23.4602 16.029C23.3341 16.3336 23.3011 16.6687 23.3654 16.992C23.4297 17.3153 23.5884 17.6123 23.8215 17.8453C24.0546 18.0784 24.3515 18.2372 24.6749 18.3015C24.9982 18.3658 25.3333 18.3328 25.6378 18.2066C25.9424 18.0805 26.2026 17.8669 26.3858 17.5928C26.5689 17.3187 26.6667 16.9965 26.6667 16.6668C26.6667 16.2248 26.4911 15.8009 26.1785 15.4883C25.866 15.1758 25.442 15.0002 25 15.0002Z" fill="white"/>
</svg>
