<svg width="40" height="40" viewBox="0 0 40 40" fill="none" xmlns="http://www.w3.org/2000/svg">
<path d="M23.9333 23.7168C22.8192 24.6151 21.4311 25.105 20 25.105C18.5688 25.105 17.1808 24.6151 16.0667 23.7168C15.7263 23.4339 15.2875 23.2978 14.8468 23.3385C14.4061 23.3791 13.9996 23.5931 13.7167 23.9335C13.4338 24.2739 13.2977 24.7127 13.3383 25.1534C13.3789 25.5941 13.593 26.0006 13.9333 26.2835C15.6355 27.7045 17.7826 28.4829 20 28.4829C22.2174 28.4829 24.3644 27.7045 26.0667 26.2835C26.407 26.0006 26.6211 25.5941 26.6617 25.1534C26.7023 24.7127 26.5662 24.2739 26.2833 23.9335C26.1432 23.765 25.9713 23.6257 25.7774 23.5236C25.5835 23.4215 25.3714 23.3586 25.1532 23.3385C24.7125 23.2978 24.2737 23.4339 23.9333 23.7168ZM15 18.3335C15.3296 18.3335 15.6519 18.2357 15.9259 18.0526C16.2 17.8695 16.4136 17.6092 16.5398 17.3046C16.6659 17.0001 16.6989 16.665 16.6346 16.3417C16.5703 16.0184 16.4116 15.7214 16.1785 15.4883C15.9454 15.2552 15.6484 15.0965 15.3251 15.0322C15.0018 14.9679 14.6667 15.0009 14.3622 15.127C14.0576 15.2532 13.7973 15.4668 13.6142 15.7409C13.4311 16.015 13.3333 16.3372 13.3333 16.6668C13.3333 17.1089 13.5089 17.5328 13.8215 17.8453C14.134 18.1579 14.558 18.3335 15 18.3335ZM25 15.0002C24.6704 15.0002 24.3481 15.0979 24.074 15.281C23.8 15.4642 23.5863 15.7245 23.4602 16.029C23.334 16.3336 23.301 16.6687 23.3653 16.992C23.4297 17.3153 23.5884 17.6123 23.8215 17.8453C24.0546 18.0784 24.3515 18.2372 24.6748 18.3015C24.9981 18.3658 25.3333 18.3328 25.6378 18.2066C25.9423 18.0805 26.2026 17.8669 26.3858 17.5928C26.5689 17.3187 26.6667 16.9965 26.6667 16.6668C26.6667 16.2248 26.4911 15.8009 26.1785 15.4883C25.8659 15.1758 25.442 15.0002 25 15.0002ZM20 3.3335C16.7036 3.3335 13.4813 4.31098 10.7405 6.14234C7.99966 7.97369 5.86346 10.5767 4.60199 13.6221C3.34053 16.6675 3.01048 20.0187 3.65357 23.2517C4.29665 26.4847 5.884 29.4544 8.21487 31.7853C10.5457 34.1162 13.5155 35.7035 16.7485 36.3466C19.9815 36.9897 23.3326 36.6596 26.378 35.3982C29.4235 34.1367 32.0265 32.0005 33.8578 29.2597C35.6892 26.5188 36.6667 23.2965 36.6667 20.0002C36.6667 17.8115 36.2356 15.6442 35.398 13.6221C34.5604 11.6 33.3327 9.76269 31.7851 8.21505C30.2375 6.66741 28.4001 5.43975 26.378 4.60217C24.356 3.76459 22.1887 3.3335 20 3.3335ZM20 33.3335C17.3629 33.3335 14.785 32.5515 12.5924 31.0864C10.3997 29.6213 8.69076 27.539 7.68159 25.1026C6.67243 22.6663 6.40838 19.9854 6.92285 17.399C7.43732 14.8125 8.7072 12.4368 10.5719 10.5721C12.4366 8.70737 14.8124 7.4375 17.3988 6.92303C19.9852 6.40856 22.6661 6.6726 25.1024 7.68177C27.5388 8.69094 29.6212 10.3999 31.0862 12.5926C32.5513 14.7852 33.3333 17.3631 33.3333 20.0002C33.3333 23.5364 31.9286 26.9278 29.4281 29.4283C26.9276 31.9287 23.5362 33.3335 20 33.3335Z" fill="#252948"/>
</svg>
