<svg width="28" height="22" viewBox="0 0 28 22" fill="none" xmlns="http://www.w3.org/2000/svg">
<path d="M27.3333 2.73337C26.3311 3.16816 25.2712 3.45559 24.1867 3.5867C25.3309 2.90313 26.1884 1.82775 26.6 0.560035C25.5247 1.20012 24.3477 1.6511 23.12 1.89337C22.2994 1.00346 21.2066 0.411097 20.0131 0.209171C18.8195 0.0072441 17.5927 0.20718 16.525 0.777621C15.4574 1.34806 14.6092 2.25674 14.1136 3.36115C13.6181 4.46556 13.503 5.70322 13.7867 6.88003C11.6126 6.77007 9.48591 6.20397 7.54486 5.21852C5.60381 4.23306 3.89179 2.85029 2.51999 1.16004C2.03884 2.00026 1.78602 2.9518 1.78666 3.92004C1.78495 4.81921 2.00561 5.70486 2.429 6.49812C2.85238 7.29139 3.46535 7.96765 4.21332 8.4667C3.34396 8.44305 2.49317 8.20977 1.73332 7.7867V7.85337C1.73984 9.11322 2.18132 10.3322 2.98308 11.304C3.78484 12.2758 4.89766 12.9409 6.13332 13.1867C5.65766 13.3315 5.16382 13.4078 4.66666 13.4134C4.32251 13.4093 3.97922 13.3781 3.63999 13.32C3.99187 14.4038 4.67282 15.3509 5.58809 16.0296C6.50336 16.7083 7.60742 17.0848 8.74666 17.1067C6.82293 18.6204 4.44783 19.4465 1.99999 19.4534C1.5543 19.4548 1.10897 19.4281 0.666656 19.3734C3.16589 20.987 6.07841 21.8437 9.05332 21.84C11.1062 21.8614 13.1428 21.4734 15.0441 20.6988C16.9454 19.9242 18.6734 18.7785 20.1269 17.3287C21.5805 15.8788 22.7306 14.1539 23.5101 12.2546C24.2895 10.3553 24.6827 8.31967 24.6667 6.2667C24.6667 6.04003 24.6667 5.80004 24.6667 5.56004C25.7129 4.77978 26.6153 3.82327 27.3333 2.73337Z" fill="#1DA1F2"/>
</svg>
