<svg width="30" height="22" viewBox="0 0 30 22" fill="none" xmlns="http://www.w3.org/2000/svg">
<path d="M29.6666 7.94665C29.7326 6.03818 29.3152 4.144 28.4533 2.43998C27.8685 1.74078 27.0569 1.26893 26.16 1.10665C22.45 0.770012 18.7247 0.632038 15 0.693312C11.2888 0.629257 7.57693 0.762779 3.87998 1.09331C3.14908 1.22627 2.47268 1.5691 1.93332 2.07998C0.733318 3.18665 0.599985 5.07998 0.466652 6.67998C0.273201 9.55673 0.273201 12.4432 0.466652 15.32C0.505225 16.2205 0.63931 17.1144 0.866651 17.9866C1.02742 18.6601 1.35268 19.2831 1.81332 19.8C2.35634 20.3379 3.0485 20.7003 3.79998 20.84C6.67454 21.1948 9.57094 21.3419 12.4667 21.28C17.1333 21.3466 21.2266 21.28 26.0666 20.9066C26.8366 20.7755 27.5482 20.4127 28.1066 19.8666C28.4799 19.4932 28.7588 19.0361 28.92 18.5333C29.3968 17.0701 29.631 15.5388 29.6133 14C29.6666 13.2533 29.6666 8.74665 29.6666 7.94665ZM11.9867 14.8V6.54665L19.88 10.6933C17.6667 11.92 14.7466 13.3066 11.9867 14.8Z" fill="#FF0000"/>
</svg>
